<svg width="130" height="21" viewBox="0 0 130 21" fill="none" xmlns="http://www.w3.org/2000/svg">
<path d="M116.46 0.806412V20.5254H119.523V12.3182C119.523 11.0036 119.854 9.99975 120.517 9.30691C121.197 8.5963 122.111 8.2408 123.257 8.2408C124.403 8.2408 125.308 8.5963 125.97 9.30691C126.633 9.99975 126.964 11.0036 126.964 12.3182V20.5254H130V11.865C130 10.5326 129.74 9.39577 129.221 8.45422C128.719 7.51267 128.021 6.80199 127.125 6.32233C126.248 5.84267 125.245 5.60291 124.117 5.60291C123.167 5.60291 122.29 5.77171 121.484 6.10924C120.696 6.44678 120.042 6.92631 119.523 7.5481V0.806412H116.46ZM0.792675 2.00545V20.5254H8.26109C9.49691 20.5254 10.5805 20.3125 11.5118 19.8862C12.4431 19.4421 13.1506 18.8468 13.6341 18.1006C14.1356 17.3368 14.3864 16.4841 14.3864 15.5426C14.3864 14.4411 14.0373 13.4549 13.3388 12.5844C12.6403 11.7139 11.7894 11.1899 10.7865 11.0123C11.7537 10.6748 12.5237 10.1508 13.0967 9.44017C13.6699 8.72957 13.9567 7.84114 13.9567 6.77523C13.9567 5.88697 13.7237 5.08775 13.258 4.37715C12.7923 3.64877 12.1029 3.07141 11.1895 2.64506C10.2762 2.21869 9.18352 2.00545 7.9119 2.00545H0.792675ZM3.85519 4.48369H7.64325C8.64616 4.48369 9.42522 4.72346 9.98036 5.20312C10.5535 5.66501 10.8404 6.31334 10.8404 7.1483C10.8404 8.00103 10.5535 8.65831 9.98036 9.1202C9.42522 9.56433 8.64616 9.78652 7.64325 9.78652H3.85519V4.48369ZM23.337 5.60291C22.0475 5.60291 20.8653 5.9226 19.7907 6.56214C18.734 7.18392 17.8922 8.06339 17.2653 9.20036C16.6563 10.3373 16.3517 11.6429 16.3517 13.1174C16.3517 14.592 16.6563 15.9155 17.2653 17.088C17.8922 18.2427 18.734 19.1487 19.7907 19.806C20.8474 20.4456 22.0115 20.7653 23.2831 20.7653C24.4294 20.7653 25.4504 20.5344 26.3459 20.0726C27.2414 19.6107 27.9486 19.0333 28.468 18.3405V20.5254H31.5576V5.84272H28.468V7.9746C27.9486 7.29953 27.2501 6.73974 26.3725 6.29561C25.5129 5.83372 24.5011 5.60291 23.337 5.60291ZM42.7377 5.60291C41.7169 5.60291 40.8305 5.81614 40.0783 6.2425C39.3439 6.65111 38.7529 7.22847 38.3051 7.9746V5.84272H35.2424V20.5254H38.3051V12.7978C38.3051 11.3055 38.6097 10.2573 39.2187 9.65326C39.8455 9.04925 40.7589 8.74714 41.9589 8.74714H42.7377V5.60291ZM73.3417 5.60291C72.0522 5.60291 70.87 5.9226 69.7954 6.56214C68.7387 7.18392 67.8968 8.06339 67.27 9.20036C66.661 10.3373 66.3564 11.6429 66.3564 13.1174C66.3564 14.592 66.661 15.9155 67.27 17.088C67.8968 18.2427 68.7387 19.1487 69.7954 19.806C70.8521 20.4456 72.0163 20.7653 73.2878 20.7653C74.4341 20.7653 75.4551 20.5344 76.3506 20.0726C77.2462 19.6107 77.9536 19.0333 78.473 18.3405V20.5254H81.5624V5.84272H78.473V7.9746C77.9536 7.29953 77.2548 6.73974 76.3772 6.29561C75.5176 5.83372 74.5059 5.60291 73.3417 5.60291ZM104.209 5.60291C102.92 5.60291 101.738 5.9226 100.663 6.56214C99.6067 7.18392 98.7648 8.06339 98.138 9.20036C97.529 10.3373 97.2245 11.6429 97.2245 13.1174C97.2245 14.592 97.529 15.9155 98.138 17.088C98.7648 18.2427 99.6067 19.1487 100.663 19.806C101.72 20.4456 102.884 20.7653 104.156 20.7653C105.302 20.7653 106.323 20.5344 107.218 20.0726C108.114 19.6107 108.822 19.0333 109.341 18.3405V20.5254H112.43V5.84272H109.341V7.9746C108.822 7.29953 108.123 6.73974 107.245 6.29561C106.386 5.83372 105.374 5.60291 104.209 5.60291ZM43.8125 5.84272L48.4333 20.5254H51.657L54.639 9.67998L57.621 20.5254H60.8451L65.4389 5.84272H62.4301L59.3672 17.5943L56.3584 5.84272H53.1615L50.0183 17.6478L46.9288 5.84272H43.8125ZM84.7592 5.84272V8.32096H91.5023L84.7592 18.0472V20.5254H95.0216V18.0472H88.3055L95.0216 8.32096V5.84272H84.7592ZM23.9815 8.24113C24.7695 8.24113 25.5041 8.43646 26.1846 8.82729C26.8652 9.21812 27.4115 9.78653 27.8235 10.5327C28.2533 11.2788 28.468 12.1583 28.468 13.1709C28.468 14.1835 28.2533 15.0716 27.8235 15.8355C27.4115 16.5816 26.8652 17.1504 26.1846 17.5412C25.5041 17.932 24.7695 18.1274 23.9815 18.1274C23.2114 18.1274 22.4772 17.932 21.7787 17.5412C21.098 17.1326 20.5428 16.5463 20.1129 15.7824C19.701 15.0185 19.495 14.1301 19.495 13.1174C19.495 12.1048 19.701 11.2343 20.1129 10.506C20.5428 9.75981 21.098 9.20036 21.7787 8.82729C22.4592 8.43646 23.1935 8.24113 23.9815 8.24113ZM73.9865 8.24113C74.7746 8.24113 75.5088 8.43646 76.1893 8.82729C76.8699 9.21812 77.4162 9.78653 77.8282 10.5327C78.258 11.2788 78.473 12.1583 78.473 13.1709C78.473 14.1835 78.258 15.0716 77.8282 15.8355C77.4162 16.5816 76.8699 17.1504 76.1893 17.5412C75.5088 17.932 74.7746 18.1274 73.9865 18.1274C73.2164 18.1274 72.4819 17.932 71.7834 17.5412C71.1028 17.1326 70.5475 16.5463 70.1176 15.7824C69.7058 15.0185 69.4997 14.1301 69.4997 13.1174C69.4997 12.1048 69.7058 11.2343 70.1176 10.506C70.5475 9.75981 71.1028 9.20036 71.7834 8.82729C72.464 8.43646 73.1985 8.24113 73.9865 8.24113ZM104.854 8.24113C105.642 8.24113 106.377 8.43646 107.057 8.82729C107.738 9.21812 108.284 9.78653 108.696 10.5327C109.126 11.2788 109.341 12.1583 109.341 13.1709C109.341 14.1835 109.126 15.0716 108.696 15.8355C108.284 16.5816 107.738 17.1504 107.057 17.5412C106.377 17.932 105.642 18.1274 104.854 18.1274C104.084 18.1274 103.35 17.932 102.651 17.5412C101.971 17.1326 101.416 16.5463 100.986 15.7824C100.574 15.0185 100.368 14.1301 100.368 13.1174C100.368 12.1048 100.574 11.2343 100.986 10.506C101.416 9.75981 101.971 9.20036 102.651 8.82729C103.332 8.43646 104.066 8.24113 104.854 8.24113ZM3.85519 12.2648H7.88501C8.92373 12.2648 9.75657 12.5314 10.3835 13.0643C11.0103 13.5973 11.3239 14.3166 11.3239 15.2226C11.3239 16.1109 11.0283 16.8036 10.4373 17.3011C9.84636 17.7985 9.03123 18.0472 7.99244 18.0472H3.85519V12.2648Z" fill="#5F819D"/>
</svg>
