<svg width="51" height="47" viewBox="0 0 51 47" fill="none" xmlns="http://www.w3.org/2000/svg">
<path d="M12.4533 22.3699L8.3524 7.25915C7.54245 4.27471 4.80321 2.19947 1.67383 2.19946M16.3807 12.9459H44.3511C45.1143 12.9459 45.8674 13.1193 46.5519 13.4526C47.2365 13.7859 47.8342 14.2702 48.2989 14.8681C48.7635 15.4659 49.0826 16.1613 49.2315 16.9004C49.3804 17.6396 49.3551 18.4026 49.1576 19.1305L46.695 28.2046C46.2135 29.9789 45.1525 31.5467 43.6765 32.6649C42.2005 33.7831 40.392 34.3892 38.5316 34.3892H22.2002C20.3397 34.3892 18.5313 33.7831 17.0553 32.6649C15.5793 31.5467 14.5183 29.9789 14.0368 28.2046L11.5742 19.1305C11.3766 18.4026 11.3513 17.6396 11.5003 16.9004C11.6492 16.1613 11.9683 15.4659 12.4329 14.8681C12.8976 14.2702 13.4953 13.7859 14.1799 13.4526C14.8644 13.1193 15.6175 12.9459 16.3807 12.9459Z" stroke="#E5254A" stroke-width="3" stroke-linecap="round" stroke-linejoin="round"/>
<path fill-rule="evenodd" clip-rule="evenodd" d="M39.3719 42.7622C39.3719 43.0298 39.3185 43.2949 39.2148 43.5422C39.111 43.7895 38.959 44.0142 38.7673 44.2034C38.5756 44.3927 38.348 44.5428 38.0975 44.6453C37.8471 44.7477 37.5786 44.8004 37.3075 44.8004C37.0364 44.8004 36.7679 44.7477 36.5175 44.6453C36.267 44.5428 36.0394 44.3927 35.8477 44.2034C35.656 44.0142 35.5039 43.7895 35.4002 43.5422C35.2964 43.2949 35.243 43.0298 35.243 42.7622C35.243 42.4945 35.2964 42.2294 35.4002 41.9821C35.5039 41.7348 35.656 41.5101 35.8477 41.3209C36.0394 41.1316 36.267 40.9815 36.5175 40.879C36.7679 40.7766 37.0364 40.7239 37.3075 40.7239C37.5786 40.7239 37.8471 40.7766 38.0975 40.879C38.348 40.9815 38.5756 41.1316 38.7673 41.3209C38.959 41.5101 39.111 41.7348 39.2148 41.9821C39.3185 42.2294 39.3719 42.4945 39.3719 42.7622ZM24.2178 42.7622C24.2178 43.0298 24.1644 43.2949 24.0606 43.5422C23.9569 43.7895 23.8048 44.0142 23.6131 44.2034C23.4214 44.3927 23.1938 44.5428 22.9433 44.6453C22.6929 44.7477 22.4244 44.8004 22.1533 44.8004C21.8822 44.8004 21.6138 44.7477 21.3633 44.6453C21.1128 44.5428 20.8852 44.3927 20.6935 44.2034C20.5018 44.0142 20.3498 43.7895 20.246 43.5422C20.1423 43.2949 20.0889 43.0298 20.0889 42.7622C20.0889 42.4945 20.1423 42.2294 20.246 41.9821C20.3498 41.7348 20.5018 41.5101 20.6935 41.3209C20.8852 41.1316 21.1128 40.9815 21.3633 40.879C21.6138 40.7766 21.8822 40.7239 22.1533 40.7239C22.4244 40.7239 22.6929 40.7766 22.9433 40.879C23.1938 40.9815 23.4214 41.1316 23.6131 41.3209C23.8048 41.5101 23.9569 41.7348 24.0606 41.9821C24.1644 42.2294 24.2178 42.4945 24.2178 42.7622Z" stroke="#E5254A" stroke-width="3" stroke-linecap="round" stroke-linejoin="round"/>
</svg>
