<svg width="169" height="159" viewBox="0 0 169 159" fill="none" xmlns="http://www.w3.org/2000/svg">
<path fill-rule="evenodd" clip-rule="evenodd" d="M27.0365 -33H68.3898C77.8281 -33 85.4263 -25.4017 85.4263 -15.9634V25.3898C85.4263 34.828 77.8281 42.4263 68.3898 42.4263H27.0365C17.5982 42.4263 10 34.828 10 25.3898V-15.9634C10 -25.4017 17.5982 -33 27.0365 -33Z" stroke="#D7DFE6" stroke-width="20" stroke-linecap="round" stroke-linejoin="round"/>
<path fill-rule="evenodd" clip-rule="evenodd" d="M133.57 -33H174.923C184.361 -33 191.96 -25.4017 191.96 -15.9634V56.0603C191.96 65.4985 184.361 73.0968 174.923 73.0968H133.57C124.132 73.0968 116.533 65.4985 116.533 56.0603V-15.9634C116.533 -25.4017 124.132 -33 133.57 -33Z" stroke="#D7DFE6" stroke-width="20" stroke-linecap="round" stroke-linejoin="round"/>
<path fill-rule="evenodd" clip-rule="evenodd" d="M27.0365 73.5736H68.3898C77.8281 73.5736 85.4263 81.1719 85.4263 90.6102V131.963C85.4263 141.402 77.8281 149 68.3898 149H27.0365C17.5982 149 10 141.402 10 131.963V90.6102C10 81.1719 17.5982 73.5736 27.0365 73.5736Z" stroke="#D7DFE6" stroke-width="20" stroke-linecap="round" stroke-linejoin="round"/>
<path fill-rule="evenodd" clip-rule="evenodd" d="M133.57 104.244H174.923C184.361 104.244 191.96 111.842 191.96 121.28V131.963C191.96 141.401 184.361 149 174.923 149H133.57C124.132 149 116.533 141.401 116.533 131.963V121.28C116.533 111.842 124.132 104.244 133.57 104.244Z" stroke="#D7DFE6" stroke-width="20" stroke-linecap="round" stroke-linejoin="round"/>
</svg>
