<svg width="190" height="165" viewBox="0 0 190 165" fill="none" xmlns="http://www.w3.org/2000/svg">
<path d="M124.2 164.654C129.723 164.654 134.2 160.176 134.2 154.654C134.2 149.131 129.723 144.654 124.2 144.654V164.654ZM53.29 83.7435C53.29 78.2207 48.8129 73.7435 43.29 73.7435C37.7672 73.7435 33.29 78.2207 33.29 83.7435H53.29ZM25.9422 32.5901H49.6379V12.5901H25.9422V32.5901ZM49.6379 32.5901C52.9197 32.5901 55.5802 35.2506 55.5802 38.5324H75.5802C75.5802 24.2049 63.9654 12.5901 49.6379 12.5901V32.5901ZM55.5802 38.5324V67.8014H75.5802V38.5324H55.5802ZM55.5802 67.8014C55.5802 71.0832 52.9197 73.7436 49.6379 73.7436V93.7436C63.9654 93.7436 75.5802 82.1289 75.5802 67.8014H55.5802ZM49.6379 73.7436H25.9422V93.7436H49.6379V73.7436ZM25.9422 73.7436C22.6604 73.7436 20 71.0832 20 67.8014H0C0 82.1289 11.6147 93.7436 25.9422 93.7436V73.7436ZM20 67.8014V38.5324H0V67.8014H20ZM20 38.5324C20 35.2506 22.6604 32.5901 25.9422 32.5901V12.5901C11.6147 12.5901 0 24.2049 0 38.5324H20ZM124.2 144.654H70.8054V164.654H124.2V144.654ZM70.8054 144.654C61.0847 144.654 53.29 136.859 53.29 127.138H33.29C33.29 147.904 50.0388 164.654 70.8054 164.654V144.654ZM53.29 127.138V83.7435H33.29V127.138H53.29Z" fill="#D7DFE6"/>
<path d="M148.951 136.216C194.818 136.216 232 99.0335 232 53.1669C232 7.30016 194.818 -29.8821 148.951 -29.8821C103.085 -29.8821 65.9023 7.30016 65.9023 53.1669C65.9023 99.0335 103.085 136.216 148.951 136.216Z" stroke="#D7DFE6" stroke-width="20" stroke-linecap="round" stroke-linejoin="round"/>
</svg>
