<svg width="189" height="159" viewBox="0 0 189 159" fill="none" xmlns="http://www.w3.org/2000/svg">
<path fill-rule="evenodd" clip-rule="evenodd" d="M53.0765 -39.5H156.424C180.011 -39.5 199 -20.5109 199 3.07655V106.424C199 130.011 180.011 149 156.424 149H53.0765C29.489 149 10.5 130.011 10.5 106.424V3.07655C10.5 -20.5109 29.489 -39.5 53.0765 -39.5Z" stroke="#D7DFE6" stroke-width="20" stroke-linecap="round" stroke-linejoin="round"/>
<path fill-rule="evenodd" clip-rule="evenodd" d="M51.7611 21.0898H70.216C74.428 21.0898 77.8189 24.4808 77.8189 28.6928V47.1476C77.8189 51.3596 74.428 54.7506 70.216 54.7506H51.7611C47.5491 54.7506 44.1582 51.3596 44.1582 47.1476V28.6928C44.1582 24.4808 47.5491 21.0898 51.7611 21.0898Z" stroke="#D7DFE6" stroke-width="20" stroke-linecap="round" stroke-linejoin="round"/>
<path fill-rule="evenodd" clip-rule="evenodd" d="M119.088 21.0898H137.543C141.755 21.0898 145.146 24.4808 145.146 28.6928V47.1476C145.146 51.3596 141.755 54.7506 137.543 54.7506H119.088C114.876 54.7506 111.485 51.3596 111.485 47.1476V28.6928C111.485 24.4808 114.876 21.0898 119.088 21.0898Z" stroke="#D7DFE6" stroke-width="20" stroke-linecap="round" stroke-linejoin="round"/>
</svg>
