<svg width="243" height="130" viewBox="0 0 243 130" fill="none" xmlns="http://www.w3.org/2000/svg">
<path d="M146.277 52.2553C153.113 49.2973 160.295 47.7872 167.528 47.7872C174.741 47.7872 181.903 49.2891 188.723 52.2315M146.277 51.1383C146.277 88.77 115.77 119.277 78.1383 119.277C40.5066 119.277 10 88.77 10 51.1383C10 13.5065 40.5066 -17 78.1383 -17C115.77 -17 146.277 13.5065 146.277 51.1383ZM325 51.1383C325 88.77 294.493 119.277 256.862 119.277C219.23 119.277 188.723 88.77 188.723 51.1383C188.723 13.5066 219.23 -17 256.862 -17C294.493 -17 325 13.5066 325 51.1383Z" stroke="#D7DFE6" stroke-width="20" stroke-linecap="round"/>
<path d="M83.2696 64.6222V64.6192C83.2696 60.7326 83.6959 56.8721 84.5316 53.2526C85.3666 49.6363 86.6018 46.297 88.1952 43.4384C89.7852 40.5859 91.7356 38.2066 93.9931 36.529C96.2657 34.8402 98.824 33.8866 101.506 33.8867H101.507C102.558 33.8869 103.587 34.0331 104.587 34.3116C102.538 27.2608 99.152 21.1139 94.8113 16.5124C89.4283 10.8059 82.9393 7.84296 76.4026 7.84045L83.2696 64.6222ZM83.2696 64.6222C83.2756 69.6139 83.9846 74.5488 85.3515 78.9762C86.3993 82.3699 87.8247 85.4352 89.5828 87.9743M83.2696 64.6222L89.5828 87.9743M264.227 64.6223V64.6193C264.227 60.7327 264.653 56.8722 265.489 53.2526C266.324 49.6363 267.559 46.297 269.152 43.4384C270.742 40.5859 272.693 38.2066 274.95 36.529C277.223 34.8402 279.781 33.8867 282.464 33.8868H282.464C283.515 33.8869 284.545 34.0331 285.545 34.3116C283.496 27.2608 280.109 21.114 275.768 16.5124C270.385 10.8059 263.896 7.84296 257.36 7.84048L264.227 64.6223ZM264.227 64.6223C264.233 69.6139 264.942 74.5488 266.309 78.9763C267.356 82.3699 268.782 85.4352 270.54 87.9743M264.227 64.6223L270.54 87.9743M89.5828 87.9743C85.4356 90.7695 80.9251 92.1946 76.3986 92.2022L89.5828 87.9743ZM270.54 87.9743C266.393 90.7695 261.882 92.1946 257.356 92.2022L270.54 87.9743ZM55.158 19.909C60.9577 12.0308 68.6319 7.84073 76.4017 7.84045L76.3984 92.2022C72.5358 92.2014 68.6796 91.1695 65.0413 89.1223C61.3961 87.0712 58.0283 84.0327 55.1578 80.1332C52.2871 76.2336 49.9844 71.5679 48.4057 66.3905C46.8273 61.2141 46.0107 55.6502 46.0107 50.0209C46.0109 38.6269 49.3487 27.8005 55.158 19.909ZM236.115 19.9091C241.915 12.0308 249.589 7.84075 257.359 7.84047L257.356 92.2022C253.493 92.2015 249.637 91.1695 245.998 89.1223C242.353 87.0712 238.985 84.0327 236.115 80.1333C233.244 76.2337 230.942 71.5679 229.363 66.3905C227.784 61.2141 226.968 55.6502 226.968 50.0209C226.968 38.6269 230.306 27.8005 236.115 19.9091Z" fill="#D7DFE6" stroke="#D7DFE6" stroke-width="5"/>
</svg>
