<svg width="150" height="179" viewBox="0 0 150 179" fill="none" xmlns="http://www.w3.org/2000/svg">
<path d="M94.9644 91.6323C88.3352 91.5879 81.5995 89.1083 76.1888 83.6975L65.2264 72.735C53.8977 61.406 55.4215 44.27 65.2264 34.4648L109.74 -10.0494C120.341 -20.6502 137.41 -20.6502 148.01 -10.0493L158.973 0.91309C169.574 11.514 169.573 28.5824 158.973 39.1832L131.078 67.0782" stroke="#D7DFE6" stroke-width="20" stroke-linecap="round" stroke-linejoin="round"/>
<path d="M81.9589 59.2567C88.5876 59.3011 95.3233 61.7806 100.734 67.1914L111.696 78.1539C123.026 89.4831 121.502 106.619 111.696 116.424L67.1831 160.938C56.5822 171.539 39.5138 171.539 28.9129 160.938L17.9505 149.976C7.34959 139.375 7.35008 122.307 17.9505 111.706L45.8454 83.8108" stroke="#D7DFE6" stroke-width="20" stroke-linecap="round" stroke-linejoin="round"/>
</svg>
