<svg width="179" height="35" viewBox="0 0 179 35" fill="none" xmlns="http://www.w3.org/2000/svg">
<path d="M165.46 8.8064V28.5254H168.523V20.3182C168.523 19.0036 168.854 17.9997 169.517 17.3069C170.197 16.5963 171.111 16.2408 172.257 16.2408C173.403 16.2408 174.308 16.5963 174.97 17.3069C175.633 17.9997 175.964 19.0036 175.964 20.3182V28.5254H179V19.865C179 18.5326 178.74 17.3958 178.221 16.4542C177.719 15.5127 177.021 14.802 176.125 14.3223C175.248 13.8427 174.245 13.6029 173.117 13.6029C172.167 13.6029 171.29 13.7717 170.484 14.1092C169.696 14.4468 169.042 14.9263 168.523 15.5481V8.8064H165.46ZM49.7927 10.0054V28.5254H57.2611C58.4969 28.5254 59.5805 28.3125 60.5118 27.8862C61.4431 27.442 62.1506 26.8468 62.6341 26.1006C63.1356 25.3367 63.3864 24.4841 63.3864 23.5426C63.3864 22.4411 63.0373 21.4549 62.3388 20.5844C61.6403 19.7139 60.7894 19.1899 59.7865 19.0123C60.7537 18.6747 61.5237 18.1508 62.0967 17.4402C62.6699 16.7296 62.9567 15.8411 62.9567 14.7752C62.9567 13.887 62.7237 13.0877 62.258 12.3771C61.7923 11.6488 61.1029 11.0714 60.1895 10.645C59.2762 10.2187 58.1835 10.0054 56.9119 10.0054H49.7927ZM52.8552 12.4837H56.6432C57.6462 12.4837 58.4252 12.7234 58.9804 13.2031C59.5535 13.665 59.8404 14.3133 59.8404 15.1483C59.8404 16.001 59.5535 16.6583 58.9804 17.1202C58.4252 17.5643 57.6462 17.7865 56.6432 17.7865H52.8552V12.4837ZM72.337 13.6029C71.0475 13.6029 69.8653 13.9226 68.7907 14.5621C67.734 15.1839 66.8922 16.0634 66.2653 17.2003C65.6563 18.3373 65.3517 19.6429 65.3517 21.1174C65.3517 22.5919 65.6563 23.9155 66.2653 25.088C66.8922 26.2427 67.734 27.1487 68.7907 27.806C69.8474 28.4456 71.0115 28.7652 72.2831 28.7652C73.4294 28.7652 74.4504 28.5344 75.3459 28.0725C76.2414 27.6106 76.9486 27.0333 77.468 26.3404V28.5254H80.5576V13.8427H77.468V15.9746C76.9486 15.2995 76.2501 14.7397 75.3725 14.2956C74.5129 13.8337 73.5011 13.6029 72.337 13.6029ZM91.7377 13.6029C90.7169 13.6029 89.8305 13.8161 89.0783 14.2425C88.3439 14.6511 87.7529 15.2285 87.3051 15.9746V13.8427H84.2424V28.5254H87.3051V20.7978C87.3051 19.3055 87.6097 18.2573 88.2187 17.6532C88.8455 17.0492 89.7589 16.7471 90.9589 16.7471H91.7377V13.6029ZM122.342 13.6029C121.052 13.6029 119.87 13.9226 118.795 14.5621C117.739 15.1839 116.897 16.0634 116.27 17.2003C115.661 18.3373 115.356 19.6429 115.356 21.1174C115.356 22.5919 115.661 23.9155 116.27 25.088C116.897 26.2427 117.739 27.1487 118.795 27.806C119.852 28.4456 121.016 28.7652 122.288 28.7652C123.434 28.7652 124.455 28.5344 125.351 28.0725C126.246 27.6106 126.954 27.0333 127.473 26.3404V28.5254H130.562V13.8427H127.473V15.9746C126.954 15.2995 126.255 14.7397 125.377 14.2956C124.518 13.8337 123.506 13.6029 122.342 13.6029ZM153.209 13.6029C151.92 13.6029 150.738 13.9226 149.663 14.5621C148.607 15.1839 147.765 16.0634 147.138 17.2003C146.529 18.3373 146.225 19.6429 146.225 21.1174C146.225 22.5919 146.529 23.9155 147.138 25.088C147.765 26.2427 148.607 27.1487 149.663 27.806C150.72 28.4456 151.884 28.7652 153.156 28.7652C154.302 28.7652 155.323 28.5344 156.218 28.0725C157.114 27.6106 157.822 27.0333 158.341 26.3404V28.5254H161.43V13.8427H158.341V15.9746C157.822 15.2995 157.123 14.7397 156.245 14.2956C155.386 13.8337 154.374 13.6029 153.209 13.6029ZM92.8125 13.8427L97.4333 28.5254H100.657L103.639 17.68L106.621 28.5254H109.845L114.439 13.8427H111.43L108.367 25.5943L105.358 13.8427H102.162L99.0183 25.6477L95.9288 13.8427H92.8125ZM133.759 13.8427V16.3209H140.502L133.759 26.0472V28.5254H144.022V26.0472H137.305L144.022 16.3209V13.8427H133.759ZM72.9815 16.2411C73.7695 16.2411 74.5041 16.4364 75.1846 16.8273C75.8652 17.2181 76.4115 17.7865 76.8235 18.5327C77.2533 19.2788 77.468 20.1583 77.468 21.1709C77.468 22.1835 77.2533 23.0716 76.8235 23.8355C76.4115 24.5816 75.8652 25.1504 75.1846 25.5412C74.5041 25.932 73.7695 26.1274 72.9815 26.1274C72.2114 26.1274 71.4772 25.932 70.7787 25.5412C70.098 25.1326 69.5428 24.5463 69.1129 23.7824C68.701 23.0185 68.495 22.1301 68.495 21.1174C68.495 20.1048 68.701 19.2343 69.1129 18.5059C69.5428 17.7598 70.098 17.2003 70.7787 16.8273C71.4592 16.4364 72.1935 16.2411 72.9815 16.2411ZM122.987 16.2411C123.775 16.2411 124.509 16.4364 125.189 16.8273C125.87 17.2181 126.416 17.7865 126.828 18.5327C127.258 19.2788 127.473 20.1583 127.473 21.1709C127.473 22.1835 127.258 23.0716 126.828 23.8355C126.416 24.5816 125.87 25.1504 125.189 25.5412C124.509 25.932 123.775 26.1274 122.987 26.1274C122.216 26.1274 121.482 25.932 120.783 25.5412C120.103 25.1326 119.547 24.5463 119.118 23.7824C118.706 23.0185 118.5 22.1301 118.5 21.1174C118.5 20.1048 118.706 19.2343 119.118 18.5059C119.547 17.7598 120.103 17.2003 120.783 16.8273C121.464 16.4364 122.198 16.2411 122.987 16.2411ZM153.854 16.2411C154.642 16.2411 155.377 16.4364 156.057 16.8273C156.738 17.2181 157.284 17.7865 157.696 18.5327C158.126 19.2788 158.341 20.1583 158.341 21.1709C158.341 22.1835 158.126 23.0716 157.696 23.8355C157.284 24.5816 156.738 25.1504 156.057 25.5412C155.377 25.932 154.642 26.1274 153.854 26.1274C153.084 26.1274 152.35 25.932 151.651 25.5412C150.971 25.1326 150.416 24.5463 149.986 23.7824C149.574 23.0185 149.368 22.1301 149.368 21.1174C149.368 20.1048 149.574 19.2343 149.986 18.5059C150.416 17.7598 150.971 17.2003 151.651 16.8273C152.332 16.4364 153.066 16.2411 153.854 16.2411ZM52.8552 20.2647H56.885C57.9237 20.2647 58.7566 20.5314 59.3835 21.0643C60.0103 21.5973 60.3239 22.3166 60.3239 23.2226C60.3239 24.1109 60.0283 24.8036 59.4373 25.3011C58.8464 25.7985 58.0312 26.0472 56.9924 26.0472H52.8552V20.2647Z" fill="#5F819D"/>
<path fill-rule="evenodd" clip-rule="evenodd" d="M20.2153 11.3566C16.8761 11.3566 14.1501 14.0606 14.1501 17.3728V28.0525C14.1501 31.3647 16.8761 34.0687 20.2153 34.0687H30.9821C34.3213 34.0687 37.0474 31.3647 37.0474 28.0525V17.3728C37.0474 14.0606 34.3213 11.3566 30.9821 11.3566H20.2153ZM20.2153 13.763H30.9821C33.0192 13.763 34.6213 15.3522 34.6213 17.3728V28.0525C34.6213 30.0731 33.0192 31.6622 30.9821 31.6622H20.2153C18.1782 31.6622 16.5761 30.0731 16.5761 28.0525V17.3728C16.5761 15.3522 18.1782 13.763 20.2153 13.763Z" fill="#013660"/>
<path fill-rule="evenodd" clip-rule="evenodd" d="M6.06529 0C2.72615 0 0 2.70405 0 6.01621V16.6959C0 20.0081 2.72615 22.7121 6.06529 22.7121H16.8321C20.1713 22.7121 22.8973 20.0081 22.8973 16.6959V6.01621C22.8973 2.70405 20.1713 0 16.8321 0H6.06529ZM6.06529 2.40649H16.8321C18.8692 2.40649 20.4713 3.99562 20.4713 6.01621V16.6959C20.4713 18.7165 18.8692 20.3057 16.8321 20.3057H6.06529C4.02826 20.3057 2.42607 18.7165 2.42607 16.6959V6.01621C2.42607 3.99562 4.02826 2.40649 6.06529 2.40649Z" fill="#E5254A"/>
</svg>
