<svg width="87" height="36" viewBox="0 0 87 36" fill="none" xmlns="http://www.w3.org/2000/svg">
<path d="M86.7465 25.5714L84.6366 8.21313C84.0692 3.53967 80.0438 0.0141602 75.2736 0.0141602H55.1221C50.3518 0.0141602 46.3265 3.53967 45.7589 8.21313L43.6512 25.5714C43.3305 28.2116 44.1714 30.867 45.9606 32.8558C47.7477 34.846 50.3192 35.9858 53.0144 35.9858H77.3835C80.0763 35.9858 82.648 34.846 84.4372 32.8558C86.2241 30.8675 87.0673 28.2121 86.7465 25.5714ZM80.9669 29.8392C80.0092 30.904 78.6877 31.4898 77.2474 31.4898H53.151C51.7084 31.4898 50.3865 30.904 49.4315 29.8392C48.4738 28.7745 48.043 27.4106 48.2137 25.9972L50.2977 8.83361C50.597 6.37073 52.7194 4.51035 55.235 4.51035H75.1612C77.676 4.51035 79.7992 6.37017 80.0984 8.83361L82.1845 25.9972C82.3554 27.4106 81.9217 28.7745 80.9669 29.8392Z" fill="#BBF3E5"/>
<path d="M77.3058 20.2432C76.9741 19.7413 76.4645 19.397 75.8704 19.2737C75.2753 19.1502 74.6692 19.2627 74.1605 19.5896C68.0932 23.4947 62.1885 23.4942 56.1096 19.5891C55.6009 19.2622 54.9932 19.1497 54.3997 19.2742C53.8056 19.3981 53.2966 19.743 52.9654 20.2448C52.6341 20.7468 52.5207 21.346 52.6464 21.9323C52.7718 22.5186 53.1213 23.0209 53.6298 23.3478C57.4286 25.7884 61.3013 27.0256 65.1403 27.0256C68.9799 27.0256 72.8497 25.7879 76.643 23.3467C77.1515 23.0193 77.5003 22.5164 77.6254 21.9301C77.7511 21.3444 77.6376 20.7452 77.3058 20.2432Z" fill="#BBF3E5"/>
<path d="M35.9705 10.8723L33.8148 11.6053C34.0501 12.3563 34.3399 13.4287 34.3399 14.0541C34.3399 14.7333 33.9051 15.1444 33.0719 15.1444C32.2207 15.1444 31.7137 14.9476 31.7137 13.8393V11.9267H29.4314V13.8393C29.4314 14.9476 28.9244 15.1444 28.0185 15.1444C27.1308 15.1444 26.6239 14.9476 26.6239 13.8393V11.9267H24.3234V13.8213C24.3234 14.9476 23.7073 15.1439 22.3853 15.1439C21.0271 15.1439 20.556 14.8758 20.556 13.4097V5.20581H18.1469V13.5358C18.1469 14.8943 17.6757 15.1444 16.318 15.1444H16.3175C15.2485 15.1444 14.6154 14.9307 14.6154 13.5897V7.43975H12.3506V8.71009C8.05758 9.58453 6.51855 11.3546 6.51855 13.5717C6.51855 15.6801 7.93084 17.0396 9.99554 17.0396C11.5362 17.0396 12.3137 16.2706 12.6587 15.2336C12.9667 17.0749 14.0517 18.1463 16.1692 18.1474L16.1725 18.1479C17.7849 18.1479 18.6901 17.4327 19.0704 16.3424C19.5415 17.5578 20.61 18.1479 22.24 18.1479C23.7431 18.1479 24.7212 17.6117 25.1013 16.5034C25.4816 17.6296 26.3875 18.1479 27.6736 18.1479C28.9598 18.1479 29.8475 17.6117 30.2093 16.4854C30.5896 17.6117 31.5138 18.1479 32.9988 18.1479C35.2447 18.1479 36.6212 16.6997 36.6212 14.072C36.6223 13.1068 36.3506 11.7837 35.9705 10.8723ZM12.3512 13.5173C11.9897 13.8034 11.3004 14.0187 10.2859 14.0187C9.36187 14.0187 8.43888 13.7691 8.43888 13.1606C8.43888 12.4983 9.39824 11.8375 12.3506 11.3546V13.5173H12.3512Z" fill="#BBF3E5"/>
<path d="M13.5735 6.88512C14.3085 6.88512 14.9136 6.35871 14.9136 5.61913C14.9136 4.83713 14.2793 4.35315 13.5735 4.35315C12.8384 4.35315 12.2185 4.85072 12.2185 5.61913C12.2185 6.40168 12.8814 6.88512 13.5735 6.88512Z" fill="#BBF3E5"/>
<path d="M10.5444 6.88512C11.2795 6.88512 11.8845 6.35871 11.8845 5.61913C11.8845 4.83713 11.2503 4.35315 10.5444 4.35315C9.80936 4.35315 9.18945 4.85072 9.18945 5.61913C9.18945 6.40168 9.85233 6.88512 10.5444 6.88512Z" fill="#BBF3E5"/>
<path d="M0.0285645 30.9463L0.385079 29.0348C1.08213 29.5243 2.32193 29.9674 3.35953 29.9674C4.25826 29.9674 4.78503 29.6771 4.78503 29.1877C4.78503 27.8575 0.106259 29.0957 0.106259 25.8699C0.106259 24.188 1.51634 23.0873 3.79373 23.0873C5.01756 23.0873 6.14882 23.4239 6.95442 23.8366L6.56706 25.702C5.80773 25.3043 4.8473 24.9373 3.91771 24.9373C3.06583 24.9373 2.53905 25.2581 2.53905 25.7171C2.53905 27.1087 7.21781 25.9162 7.21781 28.9277C7.21781 30.5792 5.62204 31.7408 3.26695 31.7408C1.85687 31.7413 0.725612 31.3286 0.0285645 30.9463Z" fill="#BBF3E5"/>
<path d="M15.0563 23.3626H17.504V31.5119H15.0563V30.1666C14.3902 31.1449 13.4451 31.711 12.2213 31.711C10.1451 31.711 8.14648 30.2586 8.14648 27.4297C8.14648 24.6008 10.0519 23.1178 12.2213 23.1178C13.4297 23.1178 14.3747 23.561 15.0563 24.448V23.3626ZM15.0563 27.3993C14.6073 25.8853 13.7085 25.1212 12.6858 25.1212C11.586 25.1212 10.7335 25.9314 10.7335 27.3993C10.7335 28.8517 11.6009 29.7081 12.7013 29.7081C13.7708 29.7076 14.6536 28.775 15.0563 27.3993Z" fill="#BBF3E5"/>
<path d="M19.3015 31.5118V20.7629H21.7492V31.5118H19.3015Z" fill="#BBF3E5"/>
<path d="M23.5466 31.5118V20.7629H25.9943V31.5118H23.5466Z" fill="#BBF3E5"/>
<path d="M34.298 23.3626H36.7457V31.5119H34.298V30.1666C33.6319 31.1449 32.6868 31.711 31.463 31.711C29.3868 31.711 27.3882 30.2586 27.3882 27.4297C27.3882 24.6008 29.2936 23.1178 31.463 23.1178C32.6715 23.1178 33.6164 23.561 34.298 24.448V23.3626ZM34.298 27.3993C33.849 25.8853 32.9503 25.1212 31.9275 25.1212C30.8277 25.1212 29.9752 25.9314 29.9752 27.3993C29.9752 28.8517 30.8427 29.7081 31.943 29.7081C33.012 29.7076 33.8953 28.775 34.298 27.3993Z" fill="#BBF3E5"/>
</svg>
