<svg width="205" height="467" viewBox="0 0 205 467" fill="none" xmlns="http://www.w3.org/2000/svg">
<path d="M0 24C0 10.7452 10.7452 0 24 0H181C194.255 0 205 10.7452 205 24V404C205 417.255 194.255 428 181 428H24C10.7452 428 0 417.255 0 404V24Z" fill="white"/>
<rect x="108" y="24" width="97" height="404" rx="24" fill="white"/>
<path d="M72.0232 83.52C71.3726 83.52 70.7646 83.4453 70.1992 83.296C69.6446 83.1467 69.1646 82.928 68.7592 82.64C68.3539 82.352 68.0339 81.9947 67.7992 81.568C67.5752 81.1307 67.4632 80.624 67.4632 80.048C67.4632 79.3973 67.6072 78.8267 67.8952 78.336C68.1939 77.8347 68.6046 77.408 69.1272 77.056C69.6606 76.704 70.2792 76.4213 70.9832 76.208C71.6872 75.984 72.4499 75.824 73.2712 75.728L73.4632 77.552C72.9726 77.6053 72.4712 77.696 71.9592 77.824C71.4472 77.9413 70.9726 78.1013 70.5352 78.304C70.0979 78.5067 69.7459 78.752 69.4792 79.04C69.2126 79.328 69.0792 79.664 69.0792 80.048C69.0792 80.4213 69.2126 80.7307 69.4792 80.976C69.7459 81.2213 70.1032 81.4027 70.5512 81.52C70.9992 81.6267 71.4899 81.68 72.0232 81.68C72.4286 81.68 72.8019 81.6533 73.1432 81.6C73.4952 81.5467 73.8206 81.472 74.1192 81.376L74.5992 83.136C74.2046 83.264 73.7832 83.36 73.3352 83.424C72.8979 83.488 72.4606 83.52 72.0232 83.52ZM76.3592 84C75.6126 84 75.0046 83.888 74.5352 83.664C74.0659 83.4293 73.7192 83.0773 73.4952 82.608C73.2712 82.1387 73.1592 81.5467 73.1592 80.832V75.296H74.7752V80.832C74.7752 81.1947 74.8126 81.472 74.8872 81.664C74.9619 81.856 75.1112 81.9893 75.3352 82.064C75.5699 82.128 75.9112 82.16 76.3592 82.16H77.0152V84H76.3592ZM77.0152 84V82.16C77.1326 82.16 77.2126 82.2453 77.2552 82.416C77.3086 82.576 77.3352 82.7947 77.3352 83.072C77.3352 83.3493 77.3086 83.5733 77.2552 83.744C77.2126 83.9147 77.1326 84 77.0152 84ZM72.5672 73.552C72.2899 73.552 72.0552 73.4613 71.8632 73.28C71.6819 73.088 71.5912 72.8533 71.5912 72.576C71.5912 72.288 71.6819 72.0533 71.8632 71.872C72.0552 71.6907 72.2899 71.6 72.5672 71.6C72.8446 71.6 73.0739 71.6907 73.2552 71.872C73.4472 72.0533 73.5432 72.288 73.5432 72.576C73.5432 72.8533 73.4472 73.088 73.2552 73.28C73.0739 73.4613 72.8446 73.552 72.5672 73.552ZM70.2952 73.552C70.0179 73.552 69.7832 73.4613 69.5912 73.28C69.4099 73.088 69.3192 72.8533 69.3192 72.576C69.3192 72.288 69.4099 72.0533 69.5912 71.872C69.7832 71.6907 70.0179 71.6 70.2952 71.6C70.5726 71.6 70.8019 71.6907 70.9832 71.872C71.1752 72.0533 71.2712 72.288 71.2712 72.576C71.2712 72.8533 71.1752 73.088 70.9832 73.28C70.8019 73.4613 70.5726 73.552 70.2952 73.552ZM77.0107 84V82.16H77.8267C78.2854 82.16 78.6267 82.128 78.8507 82.064C79.0747 81.9893 79.2241 81.856 79.2987 81.664C79.3734 81.472 79.4107 81.1947 79.4107 80.832V76.288H81.0267V80.832C81.0267 81.5467 80.9147 82.1387 80.6907 82.608C80.4667 83.0773 80.1201 83.4293 79.6507 83.664C79.1814 83.888 78.5734 84 77.8267 84H77.0107ZM82.6107 84C81.8641 84 81.2561 83.888 80.7867 83.664C80.3174 83.4293 79.9707 83.0773 79.7467 82.608C79.5227 82.1387 79.4107 81.5467 79.4107 80.832H81.0267C81.0267 81.1947 81.0641 81.472 81.1387 81.664C81.2134 81.856 81.3627 81.9893 81.5867 82.064C81.8214 82.128 82.1627 82.16 82.6107 82.16H83.2667V84H82.6107ZM83.2667 84V82.16C83.3841 82.16 83.4641 82.2453 83.5067 82.416C83.5601 82.576 83.5867 82.7947 83.5867 83.072C83.5867 83.3493 83.5601 83.5733 83.5067 83.744C83.4641 83.9147 83.3841 84 83.2667 84ZM77.0107 84C76.8934 84 76.8134 83.9147 76.7707 83.744C76.7174 83.5733 76.6907 83.344 76.6907 83.056C76.6907 82.7787 76.7174 82.56 76.7707 82.4C76.8134 82.24 76.8934 82.16 77.0107 82.16V84ZM81.3627 87.904C81.0854 87.904 80.8507 87.808 80.6587 87.616C80.4774 87.424 80.3867 87.1947 80.3867 86.928C80.3867 86.64 80.4774 86.4053 80.6587 86.224C80.8507 86.0427 81.0854 85.952 81.3627 85.952C81.6401 85.952 81.8694 86.0427 82.0507 86.224C82.2427 86.4053 82.3387 86.64 82.3387 86.928C82.3387 87.1947 82.2427 87.424 82.0507 87.616C81.8694 87.808 81.6401 87.904 81.3627 87.904ZM79.0907 87.904C78.8134 87.904 78.5787 87.808 78.3867 87.616C78.2054 87.424 78.1147 87.1947 78.1147 86.928C78.1147 86.64 78.2054 86.4053 78.3867 86.224C78.5787 86.0427 78.8134 85.952 79.0907 85.952C79.3681 85.952 79.5974 86.0427 79.7787 86.224C79.9707 86.4053 80.0667 86.64 80.0667 86.928C80.0667 87.1947 79.9707 87.424 79.7787 87.616C79.5974 87.808 79.3681 87.904 79.0907 87.904ZM97.3247 84C96.5781 84 95.9701 83.888 95.5007 83.664C95.0314 83.4293 94.6847 83.0773 94.4607 82.608C94.2367 82.1387 94.1247 81.5467 94.1247 80.832H95.7407C95.7407 81.1947 95.7781 81.472 95.8527 81.664C95.9274 81.856 96.0767 81.9893 96.3007 82.064C96.5354 82.128 96.8767 82.16 97.3247 82.16H97.9807V84H97.3247ZM83.2607 84C83.1434 84 83.0634 83.9147 83.0207 83.744C82.9674 83.5733 82.9407 83.344 82.9407 83.056C82.9407 82.7787 82.9674 82.56 83.0207 82.4C83.0634 82.24 83.1434 82.16 83.2607 82.16V84ZM93.0047 84C92.6527 84 92.3061 83.936 91.9647 83.808C91.6341 83.68 91.3301 83.4773 91.0527 83.2C90.7754 82.912 90.5567 82.5493 90.3967 82.112L91.4687 81.376C91.5647 81.6533 91.7354 81.8667 91.9807 82.016C92.2367 82.1653 92.5034 82.24 92.7807 82.24C93.1221 82.24 93.4314 82.128 93.7087 81.904C93.9861 81.6693 94.1247 81.312 94.1247 80.832V76.288H95.7407V80.832C95.7407 81.5467 95.6074 82.1387 95.3407 82.608C95.0741 83.0773 94.7327 83.4293 94.3167 83.664C93.9007 83.888 93.4634 84 93.0047 84ZM83.2607 84V82.16H84.0607C84.5194 82.16 84.8607 82.128 85.0847 82.064C85.3087 81.9893 85.4581 81.856 85.5327 81.664C85.6074 81.472 85.6447 81.1947 85.6447 80.832V77.872H87.2607V80.832C87.2607 81.5467 87.1487 82.1387 86.9247 82.608C86.7007 83.0773 86.3541 83.4293 85.8847 83.664C85.4154 83.888 84.8074 84 84.0607 84H83.2607ZM88.7647 84C88.4127 84 88.0661 83.936 87.7247 83.808C87.3941 83.68 87.0901 83.4773 86.8127 83.2C86.5354 82.912 86.3167 82.5493 86.1567 82.112L87.2287 81.376C87.3247 81.6533 87.4954 81.8667 87.7407 82.016C87.9967 82.1653 88.2634 82.24 88.5407 82.24C88.8821 82.24 89.1914 82.128 89.4687 81.904C89.7461 81.6693 89.8847 81.312 89.8847 80.832V77.072H91.5007V80.832C91.5007 81.5467 91.3674 82.1387 91.1007 82.608C90.8341 83.0773 90.4927 83.4293 90.0767 83.664C89.6607 83.888 89.2234 84 88.7647 84ZM97.9807 84V82.16C98.0981 82.16 98.1781 82.2453 98.2207 82.416C98.2741 82.576 98.3007 82.7947 98.3007 83.072C98.3007 83.3493 98.2741 83.5733 98.2207 83.744C98.1781 83.9147 98.0981 84 97.9807 84ZM97.9795 84V82.16H98.7955C99.2542 82.16 99.5955 82.128 99.8195 82.064C100.043 81.9893 100.193 81.856 100.267 81.664C100.342 81.472 100.379 81.1947 100.379 80.832V76.288H101.995V80.832C101.995 81.5467 101.883 82.1387 101.659 82.608C101.435 83.0773 101.089 83.4293 100.619 83.664C100.15 83.888 99.5422 84 98.7955 84H97.9795ZM103.579 84C102.833 84 102.225 83.888 101.755 83.664C101.286 83.4293 100.939 83.0773 100.715 82.608C100.491 82.1387 100.379 81.5467 100.379 80.832H101.995C101.995 81.1947 102.033 81.472 102.107 81.664C102.182 81.856 102.331 81.9893 102.555 82.064C102.79 82.128 103.131 82.16 103.579 82.16H104.235V84H103.579ZM104.235 84V82.16C104.353 82.16 104.433 82.2453 104.475 82.416C104.529 82.576 104.555 82.7947 104.555 83.072C104.555 83.3493 104.529 83.5733 104.475 83.744C104.433 83.9147 104.353 84 104.235 84ZM97.9795 84C97.8622 84 97.7822 83.9147 97.7395 83.744C97.6862 83.5733 97.6595 83.344 97.6595 83.056C97.6595 82.7787 97.6862 82.56 97.7395 82.4C97.7822 82.24 97.8622 82.16 97.9795 82.16V84ZM102.331 87.904C102.054 87.904 101.819 87.808 101.627 87.616C101.446 87.424 101.355 87.1947 101.355 86.928C101.355 86.64 101.446 86.4053 101.627 86.224C101.819 86.0427 102.054 85.952 102.331 85.952C102.609 85.952 102.838 86.0427 103.019 86.224C103.211 86.4053 103.307 86.64 103.307 86.928C103.307 87.1947 103.211 87.424 103.019 87.616C102.838 87.808 102.609 87.904 102.331 87.904ZM100.059 87.904C99.7822 87.904 99.5475 87.808 99.3555 87.616C99.1742 87.424 99.0835 87.1947 99.0835 86.928C99.0835 86.64 99.1742 86.4053 99.3555 86.224C99.5475 86.0427 99.7822 85.952 100.059 85.952C100.337 85.952 100.566 86.0427 100.747 86.224C100.939 86.4053 101.035 86.64 101.035 86.928C101.035 87.1947 100.939 87.424 100.747 87.616C100.566 87.808 100.337 87.904 100.059 87.904ZM106.469 76.288H108.085V84H104.229V82.16H106.469V76.288ZM104.229 84C104.112 84 104.032 83.9147 103.989 83.744C103.936 83.5733 103.909 83.344 103.909 83.056C103.909 82.7787 103.936 82.56 103.989 82.4C104.032 82.24 104.112 82.16 104.229 82.16V84ZM107.797 73.984C107.232 73.984 106.768 73.8773 106.405 73.664C106.053 73.44 105.877 73.1147 105.877 72.688C105.877 72.3893 105.963 72.1333 106.133 71.92C106.304 71.7067 106.528 71.5413 106.805 71.424C107.083 71.3067 107.381 71.248 107.701 71.248C107.893 71.248 108.08 71.2693 108.261 71.312C108.453 71.3547 108.635 71.4187 108.805 71.504L108.389 72.416C108.304 72.3947 108.203 72.3787 108.085 72.368C107.979 72.3573 107.883 72.352 107.797 72.352C107.499 72.352 107.264 72.3947 107.093 72.48C106.923 72.5653 106.837 72.6613 106.837 72.768C106.837 72.8747 106.923 72.9707 107.093 73.056C107.264 73.1413 107.499 73.184 107.797 73.184V73.984ZM105.589 74.304V73.184H108.981V74.304H105.589ZM111.838 84V82.16H114.19V84H111.838ZM108.558 86.48C109.07 86.4907 109.48 86.4373 109.79 86.32C110.099 86.2133 110.323 86.0267 110.462 85.76C110.6 85.4933 110.67 85.152 110.67 84.736V76.288H112.286V84.736C112.286 85.472 112.147 86.1013 111.87 86.624C111.592 87.1467 111.198 87.5467 110.686 87.824C110.184 88.1013 109.576 88.2453 108.862 88.256L108.558 86.48ZM114.19 84V82.16C114.307 82.16 114.387 82.2453 114.43 82.416C114.483 82.576 114.51 82.7947 114.51 83.072C114.51 83.3493 114.483 83.5733 114.43 83.744C114.387 83.9147 114.307 84 114.19 84ZM114.183 84V82.16H116.263V70.88H117.879V84H114.183ZM114.183 84C114.065 84 113.985 83.9147 113.943 83.744C113.889 83.5733 113.863 83.344 113.863 83.056C113.863 82.7787 113.889 82.56 113.943 82.4C113.985 82.24 114.065 82.16 114.183 82.16V84ZM120.119 84V70.88H121.735V84H120.119Z" fill="#5F819D"/>
<path fill-rule="evenodd" clip-rule="evenodd" d="M147.912 62.502H154.955C156.562 62.502 157.856 63.796 157.856 65.4034V72.4462C157.856 74.0536 156.562 75.3477 154.955 75.3477H147.912C146.305 75.3477 145.011 74.0536 145.011 72.4462V65.4034C145.011 63.796 146.305 62.502 147.912 62.502Z" stroke="#013660" stroke-width="3" stroke-linecap="round" stroke-linejoin="round"/>
<path fill-rule="evenodd" clip-rule="evenodd" d="M166.056 62.502H173.099C174.706 62.502 176 63.796 176 65.4034V77.6697C176 79.2771 174.706 80.5711 173.099 80.5711H166.056C164.448 80.5711 163.154 79.2771 163.154 77.6697V65.4034C163.154 63.796 164.448 62.502 166.056 62.502Z" stroke="#E5254A" stroke-width="3" stroke-linecap="round" stroke-linejoin="round"/>
<path fill-rule="evenodd" clip-rule="evenodd" d="M147.912 80.6523H154.955C156.562 80.6523 157.856 81.9464 157.856 83.5538V90.5966C157.856 92.204 156.562 93.4981 154.955 93.4981H147.912C146.305 93.4981 145.011 92.204 145.011 90.5966V83.5538C145.011 81.9464 146.305 80.6523 147.912 80.6523Z" stroke="#013660" stroke-width="3" stroke-linecap="round" stroke-linejoin="round"/>
<path fill-rule="evenodd" clip-rule="evenodd" d="M166.056 85.8757H173.099C174.706 85.8757 176 87.1698 176 88.7772V90.5965C176 92.204 174.706 93.498 173.099 93.498H166.056C164.448 93.498 163.154 92.204 163.154 90.5965V88.7772C163.154 87.1698 164.448 85.8757 166.056 85.8757Z" stroke="#013660" stroke-width="3" stroke-linecap="round" stroke-linejoin="round"/>
<path fill-rule="evenodd" clip-rule="evenodd" d="M205 57V99H204C200.686 99 198 96.3137 198 93V63C198 59.6863 200.686 57 204 57H205Z" fill="#E5254A"/>
<path d="M60.2097 156C59.4097 156 58.711 155.888 58.1137 155.664C57.527 155.429 57.0417 155.115 56.6577 154.72C56.2737 154.325 55.9857 153.877 55.7937 153.376C55.6123 152.875 55.5217 152.352 55.5217 151.808C55.5217 151.296 55.5963 150.784 55.7457 150.272C55.895 149.76 56.119 149.275 56.4177 148.816L57.7457 149.408C57.5323 149.835 57.3777 150.24 57.2817 150.624C57.1857 150.997 57.1377 151.349 57.1377 151.68C57.1377 152.224 57.255 152.683 57.4897 153.056C57.7243 153.419 58.071 153.696 58.5297 153.888C58.9883 154.069 59.5483 154.16 60.2097 154.16H66.3537V148.288H67.9697V156H60.2097ZM62.8817 147.92C62.6043 147.92 62.3697 147.829 62.1777 147.648C61.9963 147.456 61.9057 147.221 61.9057 146.944C61.9057 146.656 61.9963 146.421 62.1777 146.24C62.3697 146.059 62.6043 145.968 62.8817 145.968C63.159 145.968 63.3883 146.059 63.5697 146.24C63.7617 146.421 63.8577 146.656 63.8577 146.944C63.8577 147.221 63.7617 147.456 63.5697 147.648C63.3883 147.829 63.159 147.92 62.8817 147.92ZM60.6097 147.92C60.3323 147.92 60.0977 147.829 59.9057 147.648C59.7243 147.456 59.6337 147.221 59.6337 146.944C59.6337 146.656 59.7243 146.421 59.9057 146.24C60.0977 146.059 60.3323 145.968 60.6097 145.968C60.887 145.968 61.1163 146.059 61.2977 146.24C61.4897 146.421 61.5857 146.656 61.5857 146.944C61.5857 147.221 61.4897 147.456 61.2977 147.648C61.1163 147.829 60.887 147.92 60.6097 147.92ZM71.9927 156V154.16H73.8967V156H71.9927ZM70.3767 156V142.88H71.9927V156H70.3767ZM73.8967 156V154.16C74.014 154.16 74.094 154.245 74.1367 154.416C74.19 154.576 74.2167 154.795 74.2167 155.072C74.2167 155.349 74.19 155.573 74.1367 155.744C74.094 155.915 74.014 156 73.8967 156ZM73.8936 156V154.16H76.5496C77.0296 154.16 77.5522 154.08 78.1176 153.92C78.6829 153.749 79.2376 153.536 79.7816 153.28C80.3362 153.013 80.8429 152.725 81.3016 152.416C81.7602 152.107 82.1229 151.808 82.3896 151.52C82.6669 151.232 82.8056 150.981 82.8056 150.768C82.8056 150.565 82.6776 150.379 82.4216 150.208C82.1656 150.037 81.8082 149.899 81.3496 149.792C80.8909 149.675 80.3629 149.616 79.7656 149.616C79.2642 149.616 78.7896 149.659 78.3416 149.744C77.8936 149.829 77.4136 149.957 76.9016 150.128L76.2616 150.96L75.2216 150.64L76.6456 148.32C77.0829 148.171 77.5576 148.043 78.0696 147.936C78.5816 147.829 79.1522 147.776 79.7816 147.776C80.7096 147.776 81.5202 147.899 82.2136 148.144C82.9069 148.379 83.4456 148.709 83.8296 149.136C84.2242 149.563 84.4216 150.069 84.4216 150.656C84.4216 151.136 84.2882 151.605 84.0216 152.064C83.7656 152.512 83.4189 152.933 82.9816 153.328C82.5442 153.723 82.0482 154.085 81.4936 154.416C80.9389 154.736 80.3682 155.019 79.7816 155.264C79.1949 155.499 78.6189 155.68 78.0536 155.808C77.4989 155.936 76.9976 156 76.5496 156H73.8936ZM82.5016 156C81.2749 156 80.1656 155.776 79.1736 155.328C78.1922 154.88 77.3602 154.256 76.6776 153.456C76.0056 152.645 75.5202 151.707 75.2216 150.64L76.6456 149.696C76.8056 150.603 77.1522 151.392 77.6856 152.064C78.2189 152.736 78.8962 153.253 79.7176 153.616C80.5496 153.979 81.4776 154.16 82.5016 154.16H85.8456V156H82.5016ZM85.8456 156V154.16C85.9629 154.16 86.0429 154.245 86.0856 154.416C86.1389 154.576 86.1656 154.795 86.1656 155.072C86.1656 155.349 86.1389 155.573 86.0856 155.744C86.0429 155.915 85.9629 156 85.8456 156ZM73.8936 156C73.7762 156 73.6962 155.915 73.6536 155.744C73.6002 155.573 73.5736 155.344 73.5736 155.056C73.5736 154.779 73.6002 154.56 73.6536 154.4C73.6962 154.24 73.7762 154.16 73.8936 154.16V156ZM85.8467 156V154.16H86.6627C87.1213 154.16 87.4627 154.128 87.6867 154.064C87.9107 153.989 88.06 153.856 88.1347 153.664C88.2093 153.472 88.2467 153.195 88.2467 152.832V148.288H89.8627V152.832C89.8627 153.547 89.7507 154.139 89.5267 154.608C89.3027 155.077 88.956 155.429 88.4867 155.664C88.0173 155.888 87.4093 156 86.6627 156H85.8467ZM91.4467 156C90.7 156 90.092 155.888 89.6227 155.664C89.1533 155.429 88.8067 155.077 88.5827 154.608C88.3587 154.139 88.2467 153.547 88.2467 152.832H89.8627C89.8627 153.195 89.9 153.472 89.9747 153.664C90.0493 153.856 90.1987 153.989 90.4227 154.064C90.6573 154.128 90.9987 154.16 91.4467 154.16H92.1027V156H91.4467ZM92.1027 156V154.16C92.22 154.16 92.3 154.245 92.3427 154.416C92.396 154.576 92.4227 154.795 92.4227 155.072C92.4227 155.349 92.396 155.573 92.3427 155.744C92.3 155.915 92.22 156 92.1027 156ZM85.8467 156C85.7293 156 85.6493 155.915 85.6067 155.744C85.5533 155.573 85.5267 155.344 85.5267 155.056C85.5267 154.779 85.5533 154.56 85.6067 154.4C85.6493 154.24 85.7293 154.16 85.8467 154.16V156ZM90.1987 159.904C89.9213 159.904 89.6867 159.808 89.4947 159.616C89.3133 159.424 89.2227 159.195 89.2227 158.928C89.2227 158.64 89.3133 158.405 89.4947 158.224C89.6867 158.043 89.9213 157.952 90.1987 157.952C90.476 157.952 90.7053 158.043 90.8867 158.224C91.0787 158.405 91.1747 158.64 91.1747 158.928C91.1747 159.195 91.0787 159.424 90.8867 159.616C90.7053 159.808 90.476 159.904 90.1987 159.904ZM87.9267 159.904C87.6493 159.904 87.4147 159.808 87.2227 159.616C87.0413 159.424 86.9507 159.195 86.9507 158.928C86.9507 158.64 87.0413 158.405 87.2227 158.224C87.4147 158.043 87.6493 157.952 87.9267 157.952C88.204 157.952 88.4333 158.043 88.6147 158.224C88.8067 158.405 88.9027 158.64 88.9027 158.928C88.9027 159.195 88.8067 159.424 88.6147 159.616C88.4333 159.808 88.204 159.904 87.9267 159.904ZM92.0967 156V154.16H92.9127C93.3713 154.16 93.7127 154.128 93.9367 154.064C94.1607 153.989 94.31 153.856 94.3847 153.664C94.4593 153.472 94.4967 153.195 94.4967 152.832V148.288H96.1127V152.832C96.1127 153.547 96.0007 154.139 95.7767 154.608C95.5527 155.077 95.206 155.429 94.7367 155.664C94.2673 155.888 93.6593 156 92.9127 156H92.0967ZM97.6967 156C96.95 156 96.342 155.888 95.8727 155.664C95.4033 155.429 95.0567 155.077 94.8327 154.608C94.6087 154.139 94.4967 153.547 94.4967 152.832H96.1127C96.1127 153.195 96.15 153.472 96.2247 153.664C96.2993 153.856 96.4487 153.989 96.6727 154.064C96.9073 154.128 97.2487 154.16 97.6967 154.16H98.3527V156H97.6967ZM98.3527 156V154.16C98.47 154.16 98.55 154.245 98.5927 154.416C98.646 154.576 98.6727 154.795 98.6727 155.072C98.6727 155.349 98.646 155.573 98.5927 155.744C98.55 155.915 98.47 156 98.3527 156ZM92.0967 156C91.9793 156 91.8993 155.915 91.8567 155.744C91.8033 155.573 91.7767 155.344 91.7767 155.056C91.7767 154.779 91.8033 154.56 91.8567 154.4C91.8993 154.24 91.9793 154.16 92.0967 154.16V156ZM95.3127 160.288C95.014 160.288 94.758 160.181 94.5447 159.968C94.342 159.765 94.2407 159.515 94.2407 159.216C94.2407 158.907 94.342 158.651 94.5447 158.448C94.758 158.245 95.014 158.144 95.3127 158.144C95.622 158.144 95.878 158.245 96.0807 158.448C96.2833 158.651 96.3847 158.907 96.3847 159.216C96.3847 159.515 96.2833 159.765 96.0807 159.968C95.878 160.181 95.622 160.288 95.3127 160.288ZM110.171 156C109.477 156 108.907 155.888 108.459 155.664C108.011 155.429 107.675 155.077 107.451 154.608C107.237 154.139 107.131 153.547 107.131 152.832V152.448H108.587V152.832C108.587 153.195 108.624 153.472 108.699 153.664C108.773 153.856 108.923 153.989 109.147 154.064C109.381 154.128 109.723 154.16 110.171 154.16H110.827V156H110.171ZM98.3467 156C98.2293 156 98.1493 155.915 98.1067 155.744C98.0533 155.573 98.0267 155.344 98.0267 155.056C98.0267 154.779 98.0533 154.56 98.1067 154.4C98.1493 154.24 98.2293 154.16 98.3467 154.16V156ZM98.3467 156V154.16C98.8587 154.16 99.2853 154.059 99.6267 153.856C99.968 153.653 100.267 153.376 100.523 153.024C100.789 152.672 101.045 152.277 101.291 151.84C101.536 151.413 101.797 150.992 102.075 150.576C102.352 150.16 102.656 149.781 102.987 149.44C103.317 149.099 103.685 148.827 104.091 148.624C104.496 148.411 104.955 148.304 105.467 148.304C106.032 148.304 106.512 148.427 106.907 148.672C107.312 148.907 107.637 149.227 107.883 149.632C108.128 150.027 108.304 150.469 108.411 150.96C108.528 151.451 108.587 151.947 108.587 152.448C108.587 152.992 108.512 153.611 108.363 154.304C108.213 154.987 107.968 155.627 107.627 156.224L106.219 155.312C106.464 154.885 106.651 154.427 106.779 153.936C106.907 153.445 106.971 152.949 106.971 152.448C106.971 151.659 106.843 151.077 106.587 150.704C106.331 150.331 105.957 150.144 105.467 150.144C105.157 150.144 104.864 150.224 104.587 150.384C104.32 150.533 104.037 150.8 103.739 151.184C103.44 151.557 103.088 152.085 102.683 152.768C102.256 153.493 101.835 154.096 101.419 154.576C101.013 155.056 100.565 155.413 100.075 155.648C99.5947 155.883 99.0187 156 98.3467 156ZM107.547 154.384L107.627 156.224C106.667 156.277 105.835 156.267 105.131 156.192C104.427 156.128 103.808 156.005 103.275 155.824C102.752 155.643 102.283 155.413 101.867 155.136C101.461 154.848 101.083 154.523 100.731 154.16L101.899 152.88C102.293 153.285 102.736 153.611 103.227 153.856C103.728 154.091 104.325 154.251 105.019 154.336C105.723 154.421 106.565 154.437 107.547 154.384ZM110.827 156V154.16C110.944 154.16 111.024 154.245 111.067 154.416C111.12 154.576 111.147 154.795 111.147 155.072C111.147 155.349 111.12 155.573 111.067 155.744C111.024 155.915 110.944 156 110.827 156ZM110.831 156V154.16H112.911V142.88H114.527V156H110.831ZM110.831 156C110.714 156 110.634 155.915 110.591 155.744C110.538 155.573 110.511 155.344 110.511 155.056C110.511 154.779 110.538 154.56 110.591 154.4C110.634 154.24 110.714 154.16 110.831 154.16V156ZM116.767 156V142.88H118.383V156H116.767Z" fill="#5F819D"/>
<path fill-rule="evenodd" clip-rule="evenodd" d="M152.258 141.8H172.415C172.965 141.8 173.507 141.935 174.001 142.194C174.494 142.453 174.925 142.829 175.259 143.294C175.594 143.758 175.824 144.299 175.932 144.873C176.039 145.447 176.021 146.04 175.878 146.605L174.104 153.656C173.757 155.034 172.992 156.252 171.928 157.121C170.865 157.99 169.562 158.461 168.221 158.461H156.452C155.111 158.461 153.808 157.99 152.744 157.121C151.68 156.252 150.916 155.034 150.569 153.656L148.794 146.605C148.652 146.04 148.633 145.447 148.741 144.873C148.848 144.299 149.078 143.758 149.413 143.294C149.748 142.829 150.178 142.453 150.672 142.194C151.165 141.935 151.708 141.8 152.258 141.8Z" stroke="#E5254A" stroke-width="3" stroke-linecap="round" stroke-linejoin="round"/>
<path d="M149.427 149.122L146.472 137.382C145.888 135.063 143.914 133.451 141.659 133.451" stroke="#E5254A" stroke-width="3" stroke-linecap="round" stroke-linejoin="round"/>
<path fill-rule="evenodd" clip-rule="evenodd" d="M157.905 164.966C157.905 165.174 157.867 165.38 157.792 165.572C157.717 165.764 157.608 165.939 157.469 166.086C157.331 166.233 157.167 166.349 156.987 166.429C156.806 166.509 156.613 166.55 156.417 166.55C156.222 166.55 156.029 166.509 155.848 166.429C155.668 166.349 155.504 166.233 155.365 166.086C155.227 165.939 155.118 165.764 155.043 165.572C154.968 165.38 154.93 165.174 154.93 164.966C154.93 164.758 154.968 164.552 155.043 164.36C155.118 164.168 155.227 163.993 155.365 163.846C155.504 163.699 155.668 163.582 155.848 163.503C156.029 163.423 156.222 163.382 156.417 163.382C156.613 163.382 156.806 163.423 156.987 163.503C157.167 163.582 157.331 163.699 157.469 163.846C157.608 163.993 157.717 164.168 157.792 164.36C157.867 164.552 157.905 164.758 157.905 164.966Z" stroke="#013660" stroke-width="3" stroke-linecap="round" stroke-linejoin="round"/>
<path fill-rule="evenodd" clip-rule="evenodd" d="M168.826 164.966C168.826 165.174 168.788 165.38 168.713 165.572C168.638 165.764 168.528 165.939 168.39 166.086C168.252 166.233 168.088 166.349 167.908 166.429C167.727 166.509 167.534 166.55 167.338 166.55C167.143 166.55 166.95 166.509 166.769 166.429C166.589 166.349 166.424 166.233 166.286 166.086C166.148 165.939 166.039 165.764 165.964 165.572C165.889 165.38 165.851 165.174 165.851 164.966C165.851 164.758 165.889 164.552 165.964 164.36C166.039 164.168 166.148 163.993 166.286 163.846C166.424 163.699 166.589 163.582 166.769 163.503C166.95 163.423 167.143 163.382 167.338 163.382C167.534 163.382 167.727 163.423 167.908 163.503C168.088 163.582 168.252 163.699 168.39 163.846C168.528 163.993 168.638 164.168 168.713 164.36C168.788 164.552 168.826 164.758 168.826 164.966Z" stroke="#013660" stroke-width="3" stroke-linecap="round" stroke-linejoin="round"/>
<path d="M38.6248 231.296C37.8355 231.296 37.1315 231.152 36.5128 230.864C35.9048 230.576 35.3875 230.176 34.9608 229.664C34.5341 229.152 34.2088 228.56 33.9848 227.888C33.7608 227.205 33.6488 226.469 33.6488 225.68C33.6488 225.211 33.6861 224.736 33.7608 224.256C33.8355 223.776 33.9368 223.317 34.0648 222.88L35.6008 223.168C35.4941 223.616 35.4088 224.048 35.3448 224.464C35.2915 224.869 35.2648 225.275 35.2648 225.68C35.2648 226.469 35.3981 227.147 35.6648 227.712C35.9421 228.277 36.3315 228.709 36.8328 229.008C37.3448 229.307 37.9421 229.456 38.6248 229.456C39.3181 229.456 39.9155 229.307 40.4168 229.008C40.9181 228.709 41.3021 228.277 41.5688 227.712C41.8461 227.147 41.9848 226.469 41.9848 225.68V214.88H43.6008V225.68C43.6008 226.469 43.4888 227.205 43.2648 227.888C43.0408 228.56 42.7155 229.152 42.2888 229.664C41.8621 230.176 41.3395 230.576 40.7208 230.864C40.1128 231.152 39.4141 231.296 38.6248 231.296ZM47.4517 228V226.16H49.3557V228H47.4517ZM45.8357 228V214.88H47.4517V228H45.8357ZM49.3557 228V226.16C49.473 226.16 49.553 226.245 49.5957 226.416C49.649 226.576 49.6757 226.795 49.6757 227.072C49.6757 227.349 49.649 227.573 49.5957 227.744C49.553 227.915 49.473 228 49.3557 228ZM61.1765 228C60.4832 228 59.9125 227.888 59.4645 227.664C59.0165 227.429 58.6805 227.077 58.4565 226.608C58.2432 226.139 58.1365 225.547 58.1365 224.832V224.448H59.5925V224.832C59.5925 225.195 59.6299 225.472 59.7045 225.664C59.7792 225.856 59.9285 225.989 60.1525 226.064C60.3872 226.128 60.7285 226.16 61.1765 226.16H61.8325V228H61.1765ZM49.3525 228C49.2352 228 49.1552 227.915 49.1125 227.744C49.0592 227.573 49.0325 227.344 49.0325 227.056C49.0325 226.779 49.0592 226.56 49.1125 226.4C49.1552 226.24 49.2352 226.16 49.3525 226.16V228ZM49.3525 228V226.16C49.8645 226.16 50.2912 226.059 50.6325 225.856C50.9739 225.653 51.2725 225.376 51.5285 225.024C51.7952 224.672 52.0512 224.277 52.2965 223.84C52.5419 223.413 52.8032 222.992 53.0805 222.576C53.3579 222.16 53.6619 221.781 53.9925 221.44C54.3232 221.099 54.6912 220.827 55.0965 220.624C55.5019 220.411 55.9605 220.304 56.4725 220.304C57.0379 220.304 57.5179 220.427 57.9125 220.672C58.3179 220.907 58.6432 221.227 58.8885 221.632C59.1339 222.027 59.3099 222.469 59.4165 222.96C59.5339 223.451 59.5925 223.947 59.5925 224.448C59.5925 224.992 59.5179 225.611 59.3685 226.304C59.2192 226.987 58.9739 227.627 58.6325 228.224L57.2245 227.312C57.4699 226.885 57.6565 226.427 57.7845 225.936C57.9125 225.445 57.9765 224.949 57.9765 224.448C57.9765 223.659 57.8485 223.077 57.5925 222.704C57.3365 222.331 56.9632 222.144 56.4725 222.144C56.1632 222.144 55.8699 222.224 55.5925 222.384C55.3259 222.533 55.0432 222.8 54.7445 223.184C54.4459 223.557 54.0939 224.085 53.6885 224.768C53.2619 225.493 52.8405 226.096 52.4245 226.576C52.0192 227.056 51.5712 227.413 51.0805 227.648C50.6005 227.883 50.0245 228 49.3525 228ZM58.5525 226.384L58.6325 228.224C57.6725 228.277 56.8405 228.267 56.1365 228.192C55.4325 228.128 54.8139 228.005 54.2805 227.824C53.7579 227.643 53.2885 227.413 52.8725 227.136C52.4672 226.848 52.0885 226.523 51.7365 226.16L52.9045 224.88C53.2992 225.285 53.7419 225.611 54.2325 225.856C54.7339 226.091 55.3312 226.251 56.0245 226.336C56.7285 226.421 57.5712 226.437 58.5525 226.384ZM61.8325 228V226.16C61.9499 226.16 62.0299 226.245 62.0725 226.416C62.1259 226.576 62.1525 226.795 62.1525 227.072C62.1525 227.349 62.1259 227.573 62.0725 227.744C62.0299 227.915 61.9499 228 61.8325 228ZM68.2049 227.664C67.3302 227.664 66.5249 227.536 65.7889 227.28C65.0636 227.024 64.4822 226.629 64.0449 226.096C63.6182 225.563 63.4049 224.875 63.4049 224.032C63.4049 223.328 63.5329 222.709 63.7889 222.176C64.0449 221.643 64.3969 221.2 64.8449 220.848C65.2929 220.485 65.8049 220.219 66.3809 220.048C66.9569 219.867 67.5649 219.776 68.2049 219.776C68.6742 219.776 69.1649 219.824 69.6769 219.92C70.1996 220.016 70.6742 220.155 71.1009 220.336L70.3969 221.888C70.0876 221.803 69.7249 221.739 69.3089 221.696C68.9036 221.643 68.5409 221.616 68.2209 221.616C67.2076 221.616 66.4182 221.835 65.8529 222.272C65.2982 222.709 65.0209 223.291 65.0209 224.016C65.0209 224.475 65.1382 224.864 65.3729 225.184C65.6076 225.504 65.9596 225.749 66.4289 225.92C66.9089 226.08 67.5009 226.16 68.2049 226.16V227.664ZM61.8369 228V226.16H71.4049V228H61.8369ZM61.8369 228C61.7196 228 61.6396 227.915 61.5969 227.744C61.5436 227.573 61.5169 227.344 61.5169 227.056C61.5169 226.779 61.5436 226.56 61.5969 226.4C61.6396 226.24 61.7196 226.16 61.8369 226.16V228ZM80.0758 228V214.88H81.6918V228H80.0758ZM73.1638 228V226.16H81.6918V228H73.1638ZM75.4198 228V218.336H77.0358V228H75.4198ZM76.7478 216.672C76.1825 216.672 75.7185 216.565 75.3558 216.352C75.0038 216.128 74.8278 215.803 74.8278 215.376C74.8278 215.077 74.9131 214.821 75.0838 214.608C75.2545 214.395 75.4785 214.229 75.7558 214.112C76.0331 213.995 76.3318 213.936 76.6518 213.936C76.8438 213.936 77.0305 213.957 77.2118 214C77.4038 214.043 77.5851 214.107 77.7558 214.192L77.3398 215.104C77.2545 215.083 77.1531 215.067 77.0358 215.056C76.9291 215.045 76.8331 215.04 76.7478 215.04C76.4491 215.04 76.2145 215.083 76.0438 215.168C75.8731 215.253 75.7878 215.349 75.7878 215.456C75.7878 215.563 75.8731 215.659 76.0438 215.744C76.2145 215.829 76.4491 215.872 76.7478 215.872V216.672ZM74.5398 216.992V215.872H77.9318V216.992H74.5398ZM84.2575 228V214.88H85.8735V228H84.2575ZM98.9019 228V226.16H101.238V228H98.9019ZM101.238 228V226.16C101.355 226.16 101.435 226.245 101.478 226.416C101.531 226.576 101.558 226.795 101.558 227.072C101.558 227.349 101.531 227.573 101.478 227.744C101.435 227.915 101.355 228 101.238 228ZM92.7419 232.256V230.416H95.8619C96.5232 230.416 96.9979 230.283 97.2859 230.016C97.5739 229.749 97.7179 229.323 97.7179 228.736V220.624H99.3339V228.736C99.3339 229.483 99.1899 230.117 98.9019 230.64C98.6246 231.173 98.2246 231.573 97.7019 231.84C97.1899 232.117 96.5766 232.256 95.8619 232.256H92.7419ZM96.2139 228C95.3819 228 94.6566 227.819 94.0379 227.456C93.4299 227.093 92.9552 226.608 92.6139 226C92.2726 225.381 92.1019 224.704 92.1019 223.968C92.1019 223.371 92.2086 222.821 92.4219 222.32C92.6352 221.808 92.9339 221.365 93.3179 220.992C93.7019 220.608 94.1446 220.309 94.6459 220.096C95.1472 219.883 95.6859 219.776 96.2619 219.776C96.8272 219.776 97.3766 219.867 97.9099 220.048C98.4432 220.219 98.9179 220.411 99.3339 220.624L98.6139 222.272C97.7392 221.835 96.9552 221.616 96.2619 221.616C95.7819 221.616 95.3499 221.723 94.9659 221.936C94.5819 222.139 94.2779 222.416 94.0539 222.768C93.8299 223.12 93.7179 223.52 93.7179 223.968C93.7179 224.395 93.8192 224.773 94.0219 225.104C94.2352 225.435 94.5286 225.696 94.9019 225.888C95.2752 226.069 95.7126 226.16 96.2139 226.16H98.5179V228H96.2139ZM113.067 228C112.374 228 111.803 227.888 111.355 227.664C110.907 227.429 110.571 227.077 110.347 226.608C110.134 226.139 110.027 225.547 110.027 224.832V224.448H111.483V224.832C111.483 225.195 111.52 225.472 111.595 225.664C111.67 225.856 111.819 225.989 112.043 226.064C112.278 226.128 112.619 226.16 113.067 226.16H113.723V228H113.067ZM101.243 228C101.126 228 101.046 227.915 101.003 227.744C100.95 227.573 100.923 227.344 100.923 227.056C100.923 226.779 100.95 226.56 101.003 226.4C101.046 226.24 101.126 226.16 101.243 226.16V228ZM101.243 228V226.16C101.755 226.16 102.182 226.059 102.523 225.856C102.864 225.653 103.163 225.376 103.419 225.024C103.686 224.672 103.942 224.277 104.187 223.84C104.432 223.413 104.694 222.992 104.971 222.576C105.248 222.16 105.552 221.781 105.883 221.44C106.214 221.099 106.582 220.827 106.987 220.624C107.392 220.411 107.851 220.304 108.363 220.304C108.928 220.304 109.408 220.427 109.803 220.672C110.208 220.907 110.534 221.227 110.779 221.632C111.024 222.027 111.2 222.469 111.307 222.96C111.424 223.451 111.483 223.947 111.483 224.448C111.483 224.992 111.408 225.611 111.259 226.304C111.11 226.987 110.864 227.627 110.523 228.224L109.115 227.312C109.36 226.885 109.547 226.427 109.675 225.936C109.803 225.445 109.867 224.949 109.867 224.448C109.867 223.659 109.739 223.077 109.483 222.704C109.227 222.331 108.854 222.144 108.363 222.144C108.054 222.144 107.76 222.224 107.483 222.384C107.216 222.533 106.934 222.8 106.635 223.184C106.336 223.557 105.984 224.085 105.579 224.768C105.152 225.493 104.731 226.096 104.315 226.576C103.91 227.056 103.462 227.413 102.971 227.648C102.491 227.883 101.915 228 101.243 228ZM110.443 226.384L110.523 228.224C109.563 228.277 108.731 228.267 108.027 228.192C107.323 228.128 106.704 228.005 106.171 227.824C105.648 227.643 105.179 227.413 104.763 227.136C104.358 226.848 103.979 226.523 103.627 226.16L104.795 224.88C105.19 225.285 105.632 225.611 106.123 225.856C106.624 226.091 107.222 226.251 107.915 226.336C108.619 226.421 109.462 226.437 110.443 226.384ZM113.723 228V226.16C113.84 226.16 113.92 226.245 113.963 226.416C114.016 226.576 114.043 226.795 114.043 227.072C114.043 227.349 114.016 227.573 113.963 227.744C113.92 227.915 113.84 228 113.723 228ZM115.968 220.288H117.584V228H113.728V226.16H115.968V220.288ZM113.728 228C113.61 228 113.53 227.915 113.488 227.744C113.434 227.573 113.408 227.344 113.408 227.056C113.408 226.779 113.434 226.56 113.488 226.4C113.53 226.24 113.61 226.16 113.728 226.16V228ZM116.784 218.144C116.485 218.144 116.229 218.043 116.016 217.84C115.813 217.627 115.712 217.371 115.712 217.072C115.712 216.763 115.813 216.507 116.016 216.304C116.229 216.101 116.485 216 116.784 216C117.093 216 117.349 216.101 117.552 216.304C117.754 216.507 117.856 216.763 117.856 217.072C117.856 217.371 117.754 217.627 117.552 217.84C117.349 218.043 117.093 218.144 116.784 218.144Z" fill="#5F819D"/>
<path d="M148.396 226.656L152.555 222.666L158.794 228.652L173.696 214.352" stroke="#E5254A" stroke-width="3" stroke-linecap="round" stroke-linejoin="round"/>
<path d="M176 239.652H149.392C144.575 239.652 140.696 235.773 140.696 230.956V204.348" stroke="#013660" stroke-width="3" stroke-linecap="round" stroke-linejoin="round"/>
<path d="M63.2068 300C62.4068 300 61.7081 299.888 61.1108 299.664C60.5241 299.429 60.0388 299.115 59.6548 298.72C59.2708 298.325 58.9828 297.877 58.7908 297.376C58.6094 296.875 58.5188 296.352 58.5188 295.808C58.5188 295.296 58.5934 294.784 58.7428 294.272C58.8921 293.76 59.1161 293.275 59.4148 292.816L60.7428 293.408C60.5294 293.835 60.3748 294.24 60.2788 294.624C60.1828 294.997 60.1348 295.349 60.1348 295.68C60.1348 296.224 60.2521 296.683 60.4868 297.056C60.7214 297.419 61.0681 297.696 61.5268 297.888C61.9854 298.069 62.5454 298.16 63.2068 298.16H69.3508V292.288H70.9668V300H63.2068ZM65.8788 291.92C65.6014 291.92 65.3668 291.829 65.1748 291.648C64.9934 291.456 64.9028 291.221 64.9028 290.944C64.9028 290.656 64.9934 290.421 65.1748 290.24C65.3668 290.059 65.6014 289.968 65.8788 289.968C66.1561 289.968 66.3854 290.059 66.5668 290.24C66.7588 290.421 66.8548 290.656 66.8548 290.944C66.8548 291.221 66.7588 291.456 66.5668 291.648C66.3854 291.829 66.1561 291.92 65.8788 291.92ZM63.6068 291.92C63.3294 291.92 63.0948 291.829 62.9028 291.648C62.7214 291.456 62.6308 291.221 62.6308 290.944C62.6308 290.656 62.7214 290.421 62.9028 290.24C63.0948 290.059 63.3294 289.968 63.6068 289.968C63.8841 289.968 64.1134 290.059 64.2948 290.24C64.4868 290.421 64.5828 290.656 64.5828 290.944C64.5828 291.221 64.4868 291.456 64.2948 291.648C64.1134 291.829 63.8841 291.92 63.6068 291.92ZM74.9898 300V298.16H76.8938V300H74.9898ZM73.3738 300V286.88H74.9898V300H73.3738ZM76.8938 300V298.16C77.0111 298.16 77.0911 298.245 77.1338 298.416C77.1871 298.576 77.2138 298.795 77.2138 299.072C77.2138 299.349 77.1871 299.573 77.1338 299.744C77.0911 299.915 77.0111 300 76.8938 300ZM76.8906 300V298.16H77.7066C78.1653 298.16 78.5066 298.128 78.7306 298.064C78.9546 297.989 79.104 297.856 79.1786 297.664C79.2533 297.472 79.2906 297.195 79.2906 296.832V292.288H80.9066V296.832C80.9066 297.547 80.7946 298.139 80.5706 298.608C80.3466 299.077 80 299.429 79.5306 299.664C79.0613 299.888 78.4533 300 77.7066 300H76.8906ZM82.4906 300C81.744 300 81.136 299.888 80.6666 299.664C80.1973 299.429 79.8506 299.077 79.6266 298.608C79.4026 298.139 79.2906 297.547 79.2906 296.832H80.9066C80.9066 297.195 80.944 297.472 81.0186 297.664C81.0933 297.856 81.2426 297.989 81.4666 298.064C81.7013 298.128 82.0426 298.16 82.4906 298.16H83.1466V300H82.4906ZM83.1466 300V298.16C83.264 298.16 83.344 298.245 83.3866 298.416C83.44 298.576 83.4666 298.795 83.4666 299.072C83.4666 299.349 83.44 299.573 83.3866 299.744C83.344 299.915 83.264 300 83.1466 300ZM76.8906 300C76.7733 300 76.6933 299.915 76.6506 299.744C76.5973 299.573 76.5706 299.344 76.5706 299.056C76.5706 298.779 76.5973 298.56 76.6506 298.4C76.6933 298.24 76.7733 298.16 76.8906 298.16V300ZM81.2426 303.904C80.9653 303.904 80.7306 303.808 80.5386 303.616C80.3573 303.424 80.2666 303.195 80.2666 302.928C80.2666 302.64 80.3573 302.405 80.5386 302.224C80.7306 302.043 80.9653 301.952 81.2426 301.952C81.52 301.952 81.7493 302.043 81.9306 302.224C82.1226 302.405 82.2186 302.64 82.2186 302.928C82.2186 303.195 82.1226 303.424 81.9306 303.616C81.7493 303.808 81.52 303.904 81.2426 303.904ZM78.9706 303.904C78.6933 303.904 78.4586 303.808 78.2666 303.616C78.0853 303.424 77.9946 303.195 77.9946 302.928C77.9946 302.64 78.0853 302.405 78.2666 302.224C78.4586 302.043 78.6933 301.952 78.9706 301.952C79.248 301.952 79.4773 302.043 79.6586 302.224C79.8506 302.405 79.9466 302.64 79.9466 302.928C79.9466 303.195 79.8506 303.424 79.6586 303.616C79.4773 303.808 79.248 303.904 78.9706 303.904ZM96.2286 300V296.224C96.2286 295.531 96.1166 294.949 95.8926 294.48C95.6686 294.011 95.338 293.653 94.9006 293.408C94.4633 293.163 93.9246 293.04 93.2846 293.04C92.762 293.04 92.2766 293.131 91.8286 293.312C91.3806 293.493 90.9753 293.749 90.6126 294.08C90.25 294.411 89.9406 294.811 89.6846 295.28C89.4286 295.749 89.2313 296.277 89.0926 296.864C88.954 297.44 88.8846 298.064 88.8846 298.736H87.4286C87.4286 298.288 87.466 297.797 87.5406 297.264C87.626 296.72 87.7593 296.165 87.9406 295.6C88.122 295.035 88.362 294.491 88.6606 293.968C88.9593 293.445 89.322 292.976 89.7486 292.56C90.186 292.144 90.698 291.813 91.2846 291.568C91.8713 291.323 92.538 291.2 93.2846 291.2C94.0633 291.2 94.7406 291.333 95.3166 291.6C95.8926 291.867 96.3673 292.235 96.7406 292.704C97.114 293.173 97.3913 293.712 97.5726 294.32C97.754 294.917 97.8446 295.552 97.8446 296.224V300H96.2286ZM83.1406 300V298.16H83.9566C84.4153 298.16 84.7566 298.128 84.9806 298.064C85.2046 297.989 85.354 297.856 85.4286 297.664C85.5033 297.472 85.5406 297.195 85.5406 296.832V293.072H87.1566V296.832C87.1566 297.547 87.0446 298.139 86.8206 298.608C86.5966 299.077 86.25 299.429 85.7806 299.664C85.3113 299.888 84.7033 300 83.9566 300H83.1406ZM88.7406 300C87.994 300 87.386 299.888 86.9166 299.664C86.4473 299.429 86.1006 299.077 85.8766 298.608C85.6526 298.139 85.5406 297.547 85.5406 296.832H87.1566C87.1566 297.195 87.194 297.472 87.2686 297.664C87.3433 297.856 87.4926 297.989 87.7166 298.064C87.9513 298.128 88.2926 298.16 88.7406 298.16H97.8446V300H88.7406ZM83.1406 300C83.0233 300 82.9433 299.915 82.9006 299.744C82.8473 299.573 82.8206 299.344 82.8206 299.056C82.8206 298.779 82.8473 298.56 82.9006 298.4C82.9433 298.24 83.0233 298.16 83.1406 298.16V300ZM106.237 300V298.16H108.573V300H106.237ZM108.573 300V298.16C108.69 298.16 108.77 298.245 108.813 298.416C108.866 298.576 108.893 298.795 108.893 299.072C108.893 299.349 108.866 299.573 108.813 299.744C108.77 299.915 108.69 300 108.573 300ZM100.077 304.256V302.416H103.197C103.858 302.416 104.333 302.283 104.621 302.016C104.909 301.749 105.053 301.323 105.053 300.736V292.624H106.669V300.736C106.669 301.483 106.525 302.117 106.237 302.64C105.96 303.173 105.56 303.573 105.037 303.84C104.525 304.117 103.912 304.256 103.197 304.256H100.077ZM103.549 300C102.717 300 101.992 299.819 101.373 299.456C100.765 299.093 100.29 298.608 99.9489 298C99.6075 297.381 99.4369 296.704 99.4369 295.968C99.4369 295.371 99.5435 294.821 99.7569 294.32C99.9702 293.808 100.269 293.365 100.653 292.992C101.037 292.608 101.48 292.309 101.981 292.096C102.482 291.883 103.021 291.776 103.597 291.776C104.162 291.776 104.712 291.867 105.245 292.048C105.778 292.219 106.253 292.411 106.669 292.624L105.949 294.272C105.074 293.835 104.29 293.616 103.597 293.616C103.117 293.616 102.685 293.723 102.301 293.936C101.917 294.139 101.613 294.416 101.389 294.768C101.165 295.12 101.053 295.52 101.053 295.968C101.053 296.395 101.154 296.773 101.357 297.104C101.57 297.435 101.864 297.696 102.237 297.888C102.61 298.069 103.048 298.16 103.549 298.16H105.853V300H103.549ZM108.578 300V298.16H109.394C109.853 298.16 110.194 298.128 110.418 298.064C110.642 297.989 110.791 297.856 110.866 297.664C110.941 297.472 110.978 297.195 110.978 296.832V292.288H112.594V296.832C112.594 297.547 112.482 298.139 112.258 298.608C112.034 299.077 111.687 299.429 111.218 299.664C110.749 299.888 110.141 300 109.394 300H108.578ZM114.178 300C113.431 300 112.823 299.888 112.354 299.664C111.885 299.429 111.538 299.077 111.314 298.608C111.09 298.139 110.978 297.547 110.978 296.832H112.594C112.594 297.195 112.631 297.472 112.706 297.664C112.781 297.856 112.93 297.989 113.154 298.064C113.389 298.128 113.73 298.16 114.178 298.16H114.834V300H114.178ZM114.834 300V298.16C114.951 298.16 115.031 298.245 115.074 298.416C115.127 298.576 115.154 298.795 115.154 299.072C115.154 299.349 115.127 299.573 115.074 299.744C115.031 299.915 114.951 300 114.834 300ZM108.578 300C108.461 300 108.381 299.915 108.338 299.744C108.285 299.573 108.258 299.344 108.258 299.056C108.258 298.779 108.285 298.56 108.338 298.4C108.381 298.24 108.461 298.16 108.578 298.16V300ZM112.93 290.336C112.653 290.336 112.418 290.245 112.226 290.064C112.045 289.872 111.954 289.637 111.954 289.36C111.954 289.072 112.045 288.837 112.226 288.656C112.418 288.475 112.653 288.384 112.93 288.384C113.207 288.384 113.437 288.475 113.618 288.656C113.81 288.837 113.906 289.072 113.906 289.36C113.906 289.637 113.81 289.872 113.618 290.064C113.437 290.245 113.207 290.336 112.93 290.336ZM110.658 290.336C110.381 290.336 110.146 290.245 109.954 290.064C109.773 289.872 109.682 289.637 109.682 289.36C109.682 289.072 109.773 288.837 109.954 288.656C110.146 288.475 110.381 288.384 110.658 288.384C110.935 288.384 111.165 288.475 111.346 288.656C111.538 288.837 111.634 289.072 111.634 289.36C111.634 289.637 111.538 289.872 111.346 290.064C111.165 290.245 110.935 290.336 110.658 290.336ZM114.828 300V298.16H116.908V286.88H118.524V300H114.828ZM114.828 300C114.711 300 114.631 299.915 114.588 299.744C114.535 299.573 114.508 299.344 114.508 299.056C114.508 298.779 114.535 298.56 114.588 298.4C114.631 298.24 114.711 298.16 114.828 298.16V300ZM120.764 300V286.88H122.38V300H120.764Z" fill="#5F819D"/>
<path fill-rule="evenodd" clip-rule="evenodd" d="M148.497 278.825H155.393C156.967 278.825 158.234 280.092 158.234 281.666V288.562C158.234 290.136 156.967 291.403 155.393 291.403H148.497C146.923 291.403 145.656 290.136 145.656 288.562V281.666C145.656 280.092 146.923 278.825 148.497 278.825Z" stroke="#E5254A" stroke-width="3" stroke-linecap="round" stroke-linejoin="round"/>
<path fill-rule="evenodd" clip-rule="evenodd" d="M148.497 296.597H155.393C156.967 296.597 158.234 297.864 158.234 299.438V306.334C158.234 307.908 156.967 309.175 155.393 309.175H148.497C146.923 309.175 145.656 307.908 145.656 306.334V299.438C145.656 297.864 146.923 296.597 148.497 296.597Z" stroke="#013660" stroke-width="3" stroke-linecap="round" stroke-linejoin="round"/>
<path d="M163.422 285.114H176" stroke="#E5254A" stroke-width="3" stroke-linecap="round" stroke-linejoin="round"/>
<path d="M163.422 290.301H176" stroke="#E5254A" stroke-width="3" stroke-linecap="round" stroke-linejoin="round"/>
<path d="M163.422 302.886H176" stroke="#013660" stroke-width="3" stroke-linecap="round" stroke-linejoin="round"/>
<path d="M163.422 308.073H176" stroke="#013660" stroke-width="3" stroke-linecap="round" stroke-linejoin="round"/>
<path d="M69.2491 362V360.16H72.3211V362H69.2491ZM72.3211 362V360.16C72.4384 360.16 72.5184 360.245 72.5611 360.416C72.6144 360.576 72.6411 360.795 72.6411 361.072C72.6411 361.349 72.6144 361.573 72.5611 361.744C72.5184 361.915 72.4384 362 72.3211 362ZM69.4251 362C69.4144 360.859 69.2117 359.84 68.8171 358.944C68.4224 358.048 67.8571 357.301 67.1211 356.704C66.3957 356.107 65.5211 355.691 64.4971 355.456L64.8651 353.664C66.1237 353.952 67.2117 354.485 68.1291 355.264C69.0464 356.032 69.7557 356.992 70.2571 358.144C70.7691 359.285 71.0304 360.571 71.0411 362H69.4251ZM63.1371 362V360.16H70.7051V362H63.1371ZM78.6932 361.664C77.8185 361.664 77.0132 361.536 76.2772 361.28C75.5519 361.024 74.9705 360.629 74.5332 360.096C74.1065 359.563 73.8932 358.875 73.8932 358.032C73.8932 357.328 74.0212 356.709 74.2772 356.176C74.5332 355.643 74.8852 355.2 75.3332 354.848C75.7812 354.485 76.2932 354.219 76.8692 354.048C77.4452 353.867 78.0532 353.776 78.6932 353.776C79.1625 353.776 79.6532 353.824 80.1652 353.92C80.6879 354.016 81.1625 354.155 81.5892 354.336L80.8852 355.888C80.5759 355.803 80.2132 355.739 79.7972 355.696C79.3919 355.643 79.0292 355.616 78.7092 355.616C77.6959 355.616 76.9065 355.835 76.3412 356.272C75.7865 356.709 75.5092 357.291 75.5092 358.016C75.5092 358.475 75.6265 358.864 75.8612 359.184C76.0959 359.504 76.4479 359.749 76.9172 359.92C77.3972 360.08 77.9892 360.16 78.6932 360.16V361.664ZM72.3252 362V360.16H81.8932V362H72.3252ZM72.3252 362C72.2079 362 72.1279 361.915 72.0852 361.744C72.0319 361.573 72.0052 361.344 72.0052 361.056C72.0052 360.779 72.0319 360.56 72.0852 360.4C72.1279 360.24 72.2079 360.16 72.3252 360.16V362ZM85.2681 362V360.16H87.1721V362H85.2681ZM83.6521 362V348.88H85.2681V362H83.6521ZM87.1721 362V360.16C87.2894 360.16 87.3694 360.245 87.4121 360.416C87.4654 360.576 87.4921 360.795 87.4921 361.072C87.4921 361.349 87.4654 361.573 87.4121 361.744C87.3694 361.915 87.2894 362 87.1721 362ZM101.233 362C100.486 362 99.8783 361.888 99.4089 361.664C98.9396 361.429 98.5929 361.077 98.3689 360.608C98.1449 360.139 98.0329 359.547 98.0329 358.832H99.6489C99.6489 359.195 99.6863 359.472 99.7609 359.664C99.8356 359.856 99.9849 359.989 100.209 360.064C100.444 360.128 100.785 360.16 101.233 360.16H101.889V362H101.233ZM87.1689 362C87.0516 362 86.9716 361.915 86.9289 361.744C86.8756 361.573 86.8489 361.344 86.8489 361.056C86.8489 360.779 86.8756 360.56 86.9289 360.4C86.9716 360.24 87.0516 360.16 87.1689 360.16V362ZM96.9129 362C96.5609 362 96.2143 361.936 95.8729 361.808C95.5423 361.68 95.2383 361.477 94.9609 361.2C94.6836 360.912 94.4649 360.549 94.3049 360.112L95.3769 359.376C95.4729 359.653 95.6436 359.867 95.8889 360.016C96.1449 360.165 96.4116 360.24 96.6889 360.24C97.0303 360.24 97.3396 360.128 97.6169 359.904C97.8943 359.669 98.0329 359.312 98.0329 358.832V354.288H99.6489V358.832C99.6489 359.547 99.5156 360.139 99.2489 360.608C98.9823 361.077 98.6409 361.429 98.2249 361.664C97.8089 361.888 97.3716 362 96.9129 362ZM87.1689 362V360.16H87.9689C88.4276 360.16 88.7689 360.128 88.9929 360.064C89.2169 359.989 89.3663 359.856 89.4409 359.664C89.5156 359.472 89.5529 359.195 89.5529 358.832V355.872H91.1689V358.832C91.1689 359.547 91.0569 360.139 90.8329 360.608C90.6089 361.077 90.2623 361.429 89.7929 361.664C89.3236 361.888 88.7156 362 87.9689 362H87.1689ZM92.6729 362C92.3209 362 91.9743 361.936 91.6329 361.808C91.3023 361.68 90.9983 361.477 90.7209 361.2C90.4436 360.912 90.2249 360.549 90.0649 360.112L91.1369 359.376C91.2329 359.653 91.4036 359.867 91.6489 360.016C91.9049 360.165 92.1716 360.24 92.4489 360.24C92.7903 360.24 93.0996 360.128 93.3769 359.904C93.6543 359.669 93.7929 359.312 93.7929 358.832V355.072H95.4089V358.832C95.4089 359.547 95.2756 360.139 95.0089 360.608C94.7423 361.077 94.4009 361.429 93.9849 361.664C93.5689 361.888 93.1316 362 92.6729 362ZM101.889 362V360.16C102.006 360.16 102.086 360.245 102.129 360.416C102.182 360.576 102.209 360.795 102.209 361.072C102.209 361.349 102.182 361.573 102.129 361.744C102.086 361.915 102.006 362 101.889 362ZM113.712 362C113.018 362 112.448 361.888 112 361.664C111.552 361.429 111.216 361.077 110.992 360.608C110.778 360.139 110.672 359.547 110.672 358.832V358.448H112.128V358.832C112.128 359.195 112.165 359.472 112.24 359.664C112.314 359.856 112.464 359.989 112.688 360.064C112.922 360.128 113.264 360.16 113.712 360.16H114.368V362H113.712ZM101.888 362C101.77 362 101.69 361.915 101.648 361.744C101.594 361.573 101.568 361.344 101.568 361.056C101.568 360.779 101.594 360.56 101.648 360.4C101.69 360.24 101.77 360.16 101.888 360.16V362ZM101.888 362V360.16C102.4 360.16 102.826 360.059 103.168 359.856C103.509 359.653 103.808 359.376 104.064 359.024C104.33 358.672 104.586 358.277 104.832 357.84C105.077 357.413 105.338 356.992 105.616 356.576C105.893 356.16 106.197 355.781 106.528 355.44C106.858 355.099 107.226 354.827 107.632 354.624C108.037 354.411 108.496 354.304 109.008 354.304C109.573 354.304 110.053 354.427 110.448 354.672C110.853 354.907 111.178 355.227 111.424 355.632C111.669 356.027 111.845 356.469 111.952 356.96C112.069 357.451 112.128 357.947 112.128 358.448C112.128 358.992 112.053 359.611 111.904 360.304C111.754 360.987 111.509 361.627 111.168 362.224L109.76 361.312C110.005 360.885 110.192 360.427 110.32 359.936C110.448 359.445 110.512 358.949 110.512 358.448C110.512 357.659 110.384 357.077 110.128 356.704C109.872 356.331 109.498 356.144 109.008 356.144C108.698 356.144 108.405 356.224 108.128 356.384C107.861 356.533 107.578 356.8 107.28 357.184C106.981 357.557 106.629 358.085 106.224 358.768C105.797 359.493 105.376 360.096 104.96 360.576C104.554 361.056 104.106 361.413 103.616 361.648C103.136 361.883 102.56 362 101.888 362ZM111.088 360.384L111.168 362.224C110.208 362.277 109.376 362.267 108.672 362.192C107.968 362.128 107.349 362.005 106.816 361.824C106.293 361.643 105.824 361.413 105.408 361.136C105.002 360.848 104.624 360.523 104.272 360.16L105.44 358.88C105.834 359.285 106.277 359.611 106.768 359.856C107.269 360.091 107.866 360.251 108.56 360.336C109.264 360.421 110.106 360.437 111.088 360.384ZM114.368 362V360.16C114.485 360.16 114.565 360.245 114.608 360.416C114.661 360.576 114.688 360.795 114.688 361.072C114.688 361.349 114.661 361.573 114.608 361.744C114.565 361.915 114.485 362 114.368 362ZM114.372 362V360.16H116.452V348.88H118.068V362H114.372ZM114.372 362C114.255 362 114.175 361.915 114.132 361.744C114.079 361.573 114.052 361.344 114.052 361.056C114.052 360.779 114.079 360.56 114.132 360.4C114.175 360.24 114.255 360.16 114.372 360.16V362ZM120.308 362V348.88H121.924V362H120.308ZM61.8128 387.152C60.3942 387.152 59.1728 386.949 58.1488 386.544C57.1248 386.149 56.3408 385.557 55.7968 384.768C55.2528 383.979 54.9808 383.003 54.9808 381.84C54.9808 381.499 55.0022 381.152 55.0448 380.8C55.0982 380.437 55.1675 380.059 55.2528 379.664L56.7728 379.968C56.7088 380.363 56.6608 380.704 56.6288 380.992C56.6075 381.28 56.5968 381.525 56.5968 381.728C56.5968 382.923 57.0235 383.819 57.8768 384.416C58.7408 385.013 60.0315 385.312 61.7488 385.312C62.7728 385.312 63.6528 385.216 64.3888 385.024C65.1355 384.843 65.7115 384.597 66.1168 384.288C66.5222 383.979 66.7248 383.643 66.7248 383.28C66.7248 383.067 66.6448 382.885 66.4848 382.736C66.3248 382.587 66.0582 382.437 65.6848 382.288C65.3115 382.139 64.8048 381.952 64.1648 381.728L64.6608 379.984C65.0982 380.123 65.5355 380.277 65.9728 380.448C66.4102 380.619 66.8048 380.827 67.1568 381.072C67.5195 381.317 67.8075 381.621 68.0208 381.984C68.2342 382.336 68.3408 382.773 68.3408 383.296C68.3408 383.819 68.2288 384.283 68.0048 384.688C67.7808 385.104 67.4662 385.467 67.0608 385.776C66.6662 386.085 66.1968 386.341 65.6528 386.544C65.1088 386.747 64.5115 386.896 63.8608 386.992C63.2102 387.099 62.5275 387.152 61.8128 387.152ZM65.9088 382C64.6608 382 63.7168 381.691 63.0768 381.072L64.1968 379.76C64.2715 379.824 64.3888 379.888 64.5488 379.952C64.7195 380.016 64.9222 380.069 65.1568 380.112C65.3915 380.144 65.6422 380.16 65.9088 380.16H68.3408V382H65.9088ZM68.3408 382V380.16C68.4582 380.16 68.5382 380.245 68.5808 380.416C68.6342 380.576 68.6608 380.795 68.6608 381.072C68.6608 381.349 68.6342 381.573 68.5808 381.744C68.5382 381.915 68.4582 382 68.3408 382ZM62.9648 391.056C62.6875 391.056 62.4528 390.96 62.2608 390.768C62.0795 390.576 61.9888 390.347 61.9888 390.08C61.9888 389.792 62.0795 389.557 62.2608 389.376C62.4528 389.195 62.6875 389.104 62.9648 389.104C63.2422 389.104 63.4715 389.195 63.6528 389.376C63.8448 389.557 63.9408 389.792 63.9408 390.08C63.9408 390.347 63.8448 390.576 63.6528 390.768C63.4715 390.96 63.2422 391.056 62.9648 391.056ZM60.6928 391.056C60.4155 391.056 60.1808 390.96 59.9888 390.768C59.8075 390.576 59.7168 390.347 59.7168 390.08C59.7168 389.792 59.8075 389.557 59.9888 389.376C60.1808 389.195 60.4155 389.104 60.6928 389.104C60.9702 389.104 61.1995 389.195 61.3808 389.376C61.5728 389.557 61.6688 389.792 61.6688 390.08C61.6688 390.347 61.5728 390.576 61.3808 390.768C61.1995 390.96 60.9702 391.056 60.6928 391.056ZM68.3408 382V380.16C68.9062 380.16 69.4448 380.144 69.9568 380.112C70.4795 380.08 70.9648 380.032 71.4128 379.968C71.4662 379.957 71.5142 379.989 71.5568 380.064C71.5995 380.128 71.6422 380.192 71.6848 380.256C71.7382 380.309 71.7862 380.336 71.8288 380.336C72.6502 380.176 73.3435 379.963 73.9088 379.696C74.4742 379.429 74.9062 379.12 75.2048 378.768C75.5035 378.416 75.6528 378.027 75.6528 377.6C75.6528 377.216 75.5622 376.875 75.3808 376.576C75.1995 376.277 74.9488 376.043 74.6288 375.872C74.3088 375.701 73.9355 375.616 73.5088 375.616C73.0928 375.616 72.7195 375.701 72.3888 375.872C72.0688 376.043 71.8182 376.277 71.6368 376.576C71.4555 376.864 71.3648 377.2 71.3648 377.584C71.3648 378.011 71.5195 378.411 71.8288 378.784C72.1488 379.147 72.6075 379.461 73.2048 379.728C73.8022 379.995 74.5328 380.203 75.3968 380.352C75.4502 380.363 75.4982 380.336 75.5408 380.272C75.5835 380.208 75.6262 380.144 75.6688 380.08C75.7222 380.005 75.7702 379.973 75.8128 379.984C76.2395 380.037 76.6875 380.08 77.1568 380.112C77.6368 380.144 78.1382 380.16 78.6608 380.16V382C77.3595 382 76.1648 381.909 75.0768 381.728C73.9888 381.547 73.0448 381.275 72.2448 380.912C71.4555 380.539 70.8422 380.064 70.4048 379.488C69.9675 378.901 69.7488 378.208 69.7488 377.408C69.7488 376.693 69.9142 376.064 70.2448 375.52C70.5862 374.976 71.0395 374.549 71.6048 374.24C72.1808 373.931 72.8155 373.776 73.5088 373.776C74.2022 373.776 74.8315 373.931 75.3968 374.24C75.9622 374.539 76.4155 374.965 76.7568 375.52C77.0982 376.064 77.2688 376.699 77.2688 377.424C77.2688 378.149 77.0928 378.773 76.7408 379.296C76.3995 379.819 75.9302 380.256 75.3328 380.608C74.7462 380.949 74.0688 381.227 73.3008 381.44C72.5328 381.643 71.7222 381.787 70.8688 381.872C70.0262 381.957 69.1835 382 68.3408 382ZM78.6608 382V380.16C78.7782 380.16 78.8582 380.245 78.9008 380.416C78.9542 380.576 78.9808 380.795 78.9808 381.072C78.9808 381.349 78.9542 381.573 78.9008 381.744C78.8582 381.915 78.7782 382 78.6608 382ZM68.3408 382C68.2235 382 68.1435 381.915 68.1008 381.744C68.0475 381.573 68.0208 381.344 68.0208 381.056C68.0208 380.779 68.0475 380.56 68.1008 380.4C68.1435 380.24 68.2235 380.16 68.3408 380.16V382ZM74.6448 371.824C74.3675 371.824 74.1328 371.733 73.9408 371.552C73.7595 371.36 73.6688 371.125 73.6688 370.848C73.6688 370.56 73.7595 370.325 73.9408 370.144C74.1328 369.963 74.3675 369.872 74.6448 369.872C74.9222 369.872 75.1515 369.963 75.3328 370.144C75.5248 370.325 75.6208 370.56 75.6208 370.848C75.6208 371.125 75.5248 371.36 75.3328 371.552C75.1515 371.733 74.9222 371.824 74.6448 371.824ZM72.3728 371.824C72.0955 371.824 71.8608 371.733 71.6688 371.552C71.4875 371.36 71.3968 371.125 71.3968 370.848C71.3968 370.56 71.4875 370.325 71.6688 370.144C71.8608 369.963 72.0955 369.872 72.3728 369.872C72.6502 369.872 72.8795 369.963 73.0608 370.144C73.2528 370.325 73.3488 370.56 73.3488 370.848C73.3488 371.125 73.2528 371.36 73.0608 371.552C72.8795 371.733 72.6502 371.824 72.3728 371.824ZM80.8933 374.288H82.5093V382H78.6533V380.16H80.8933V374.288ZM78.6533 382C78.536 382 78.456 381.915 78.4133 381.744C78.36 381.573 78.3333 381.344 78.3333 381.056C78.3333 380.779 78.36 380.56 78.4133 380.4C78.456 380.24 78.536 380.16 78.6533 380.16V382ZM82.2213 385.904C81.944 385.904 81.7093 385.808 81.5173 385.616C81.336 385.424 81.2453 385.195 81.2453 384.928C81.2453 384.64 81.336 384.405 81.5173 384.224C81.7093 384.043 81.944 383.952 82.2213 383.952C82.4987 383.952 82.728 384.043 82.9093 384.224C83.1013 384.405 83.1973 384.64 83.1973 384.928C83.1973 385.195 83.1013 385.424 82.9093 385.616C82.728 385.808 82.4987 385.904 82.2213 385.904ZM79.9493 385.904C79.672 385.904 79.4373 385.808 79.2453 385.616C79.064 385.424 78.9733 385.195 78.9733 384.928C78.9733 384.64 79.064 384.405 79.2453 384.224C79.4373 384.043 79.672 383.952 79.9493 383.952C80.2267 383.952 80.456 384.043 80.6373 384.224C80.8293 384.405 80.9253 384.64 80.9253 384.928C80.9253 385.195 80.8293 385.424 80.6373 385.616C80.456 385.808 80.2267 385.904 79.9493 385.904ZM91.0621 382V380.16H93.3981V382H91.0621ZM93.3981 382V380.16C93.5154 380.16 93.5954 380.245 93.6381 380.416C93.6914 380.576 93.7181 380.795 93.7181 381.072C93.7181 381.349 93.6914 381.573 93.6381 381.744C93.5954 381.915 93.5154 382 93.3981 382ZM84.9021 386.256V384.416H88.0221C88.6834 384.416 89.1581 384.283 89.4461 384.016C89.7341 383.749 89.8781 383.323 89.8781 382.736V374.624H91.4941V382.736C91.4941 383.483 91.3501 384.117 91.0621 384.64C90.7847 385.173 90.3847 385.573 89.8621 385.84C89.3501 386.117 88.7367 386.256 88.0221 386.256H84.9021ZM88.3741 382C87.5421 382 86.8167 381.819 86.1981 381.456C85.5901 381.093 85.1154 380.608 84.7741 380C84.4327 379.381 84.2621 378.704 84.2621 377.968C84.2621 377.371 84.3687 376.821 84.5821 376.32C84.7954 375.808 85.0941 375.365 85.4781 374.992C85.8621 374.608 86.3047 374.309 86.8061 374.096C87.3074 373.883 87.8461 373.776 88.4221 373.776C88.9874 373.776 89.5367 373.867 90.0701 374.048C90.6034 374.219 91.0781 374.411 91.4941 374.624L90.7741 376.272C89.8994 375.835 89.1154 375.616 88.4221 375.616C87.9421 375.616 87.5101 375.723 87.1261 375.936C86.7421 376.139 86.4381 376.416 86.2141 376.768C85.9901 377.12 85.8781 377.52 85.8781 377.968C85.8781 378.395 85.9794 378.773 86.1821 379.104C86.3954 379.435 86.6887 379.696 87.0621 379.888C87.4354 380.069 87.8727 380.16 88.3741 380.16H90.6781V382H88.3741ZM107.467 382C106.721 382 106.113 381.888 105.643 381.664C105.174 381.429 104.827 381.077 104.603 380.608C104.379 380.139 104.267 379.547 104.267 378.832H105.883C105.883 379.195 105.921 379.472 105.995 379.664C106.07 379.856 106.219 379.989 106.443 380.064C106.678 380.128 107.019 380.16 107.467 380.16H108.123V382H107.467ZM93.4033 382C93.286 382 93.206 381.915 93.1633 381.744C93.11 381.573 93.0833 381.344 93.0833 381.056C93.0833 380.779 93.11 380.56 93.1633 380.4C93.206 380.24 93.286 380.16 93.4033 380.16V382ZM103.147 382C102.795 382 102.449 381.936 102.107 381.808C101.777 381.68 101.473 381.477 101.195 381.2C100.918 380.912 100.699 380.549 100.539 380.112L101.611 379.376C101.707 379.653 101.878 379.867 102.123 380.016C102.379 380.165 102.646 380.24 102.923 380.24C103.265 380.24 103.574 380.128 103.851 379.904C104.129 379.669 104.267 379.312 104.267 378.832V374.288H105.883V378.832C105.883 379.547 105.75 380.139 105.483 380.608C105.217 381.077 104.875 381.429 104.459 381.664C104.043 381.888 103.606 382 103.147 382ZM93.4033 382V380.16H94.2033C94.662 380.16 95.0033 380.128 95.2273 380.064C95.4513 379.989 95.6007 379.856 95.6753 379.664C95.75 379.472 95.7873 379.195 95.7873 378.832V375.872H97.4033V378.832C97.4033 379.547 97.2913 380.139 97.0673 380.608C96.8433 381.077 96.4967 381.429 96.0273 381.664C95.558 381.888 94.95 382 94.2033 382H93.4033ZM98.9073 382C98.5553 382 98.2087 381.936 97.8673 381.808C97.5367 381.68 97.2327 381.477 96.9553 381.2C96.678 380.912 96.4593 380.549 96.2993 380.112L97.3713 379.376C97.4673 379.653 97.638 379.867 97.8833 380.016C98.1393 380.165 98.406 380.24 98.6833 380.24C99.0247 380.24 99.334 380.128 99.6113 379.904C99.8887 379.669 100.027 379.312 100.027 378.832V375.072H101.643V378.832C101.643 379.547 101.51 380.139 101.243 380.608C100.977 381.077 100.635 381.429 100.219 381.664C99.8033 381.888 99.366 382 98.9073 382ZM108.123 382V380.16C108.241 380.16 108.321 380.245 108.363 380.416C108.417 380.576 108.443 380.795 108.443 381.072C108.443 381.349 108.417 381.573 108.363 381.744C108.321 381.915 108.241 382 108.123 382ZM108.122 382V380.16H108.938C109.397 380.16 109.738 380.128 109.962 380.064C110.186 379.989 110.335 379.856 110.41 379.664C110.485 379.472 110.522 379.195 110.522 378.832V374.288H112.138V378.832C112.138 379.547 112.026 380.139 111.802 380.608C111.578 381.077 111.231 381.429 110.762 381.664C110.293 381.888 109.685 382 108.938 382H108.122ZM113.722 382C112.975 382 112.367 381.888 111.898 381.664C111.429 381.429 111.082 381.077 110.858 380.608C110.634 380.139 110.522 379.547 110.522 378.832H112.138C112.138 379.195 112.175 379.472 112.25 379.664C112.325 379.856 112.474 379.989 112.698 380.064C112.933 380.128 113.274 380.16 113.722 380.16H114.378V382H113.722ZM114.378 382V380.16C114.495 380.16 114.575 380.245 114.618 380.416C114.671 380.576 114.698 380.795 114.698 381.072C114.698 381.349 114.671 381.573 114.618 381.744C114.575 381.915 114.495 382 114.378 382ZM108.122 382C108.005 382 107.925 381.915 107.882 381.744C107.829 381.573 107.802 381.344 107.802 381.056C107.802 380.779 107.829 380.56 107.882 380.4C107.925 380.24 108.005 380.16 108.122 380.16V382ZM112.474 372.336C112.197 372.336 111.962 372.245 111.77 372.064C111.589 371.872 111.498 371.637 111.498 371.36C111.498 371.072 111.589 370.837 111.77 370.656C111.962 370.475 112.197 370.384 112.474 370.384C112.751 370.384 112.981 370.475 113.162 370.656C113.354 370.837 113.45 371.072 113.45 371.36C113.45 371.637 113.354 371.872 113.162 372.064C112.981 372.245 112.751 372.336 112.474 372.336ZM110.202 372.336C109.925 372.336 109.69 372.245 109.498 372.064C109.317 371.872 109.226 371.637 109.226 371.36C109.226 371.072 109.317 370.837 109.498 370.656C109.69 370.475 109.925 370.384 110.202 370.384C110.479 370.384 110.709 370.475 110.89 370.656C111.082 370.837 111.178 371.072 111.178 371.36C111.178 371.637 111.082 371.872 110.89 372.064C110.709 372.245 110.479 372.336 110.202 372.336ZM114.372 382V380.16H116.452V368.88H118.068V382H114.372ZM114.372 382C114.255 382 114.175 381.915 114.132 381.744C114.079 381.573 114.052 381.344 114.052 381.056C114.052 380.779 114.079 380.56 114.132 380.4C114.175 380.24 114.255 380.16 114.372 380.16V382ZM120.308 382V368.88H121.924V382H120.308Z" fill="#5F819D"/>
<path fill-rule="evenodd" clip-rule="evenodd" d="M152.157 350.6H169.043C172.897 350.6 176 353.703 176 357.557V374.443C176 378.297 172.897 381.4 169.043 381.4H152.157C148.303 381.4 145.2 378.297 145.2 374.443V357.557C145.2 353.703 148.303 350.6 152.157 350.6Z" stroke="#013660" stroke-width="3" stroke-linecap="round" stroke-linejoin="round"/>
<path fill-rule="evenodd" clip-rule="evenodd" d="M151.942 360.5H154.958C155.646 360.5 156.2 361.054 156.2 361.742V364.758C156.2 365.446 155.646 366 154.958 366H151.942C151.254 366 150.7 365.446 150.7 364.758V361.742C150.7 361.054 151.254 360.5 151.942 360.5Z" stroke="#E5254A" stroke-width="3" stroke-linecap="round" stroke-linejoin="round"/>
<path fill-rule="evenodd" clip-rule="evenodd" d="M162.942 360.5H165.958C166.646 360.5 167.2 361.054 167.2 361.742V364.758C167.2 365.446 166.646 366 165.958 366H162.942C162.254 366 161.7 365.446 161.7 364.758V361.742C161.7 361.054 162.254 360.5 162.942 360.5Z" stroke="#E5254A" stroke-width="3" stroke-linecap="round" stroke-linejoin="round"/>
</svg>
