<svg width="67" height="40" viewBox="0 0 67 40" fill="none" xmlns="http://www.w3.org/2000/svg">
<path d="M28.9919 33.7259L38.8276 33.7618L38.8113 38.4888L21.5064 38.4877L21.5227 34.0843C22.0772 33.5971 22.7233 33.0391 23.4517 32.4035C24.1872 31.7713 24.9424 31.1101 25.7207 30.4291C26.4979 29.7517 27.2438 29.0998 27.9537 28.4769C28.6602 27.8539 29.2773 27.3087 29.7993 26.8505C30.3224 26.3854 30.6994 26.0536 30.9349 25.8437L24.4366 25.8216C23.3914 25.8181 22.6525 25.6244 22.2105 25.2405C21.7744 24.8565 21.5551 24.2498 21.5586 23.4146C21.5621 22.8149 21.6526 22.25 21.8428 21.7303C22.0296 21.2071 22.1688 20.8649 22.2628 20.7037L36.025 20.7559C36.8347 20.7559 37.5028 20.9856 38.019 21.4403C38.5422 21.8915 38.7997 22.5632 38.7962 23.4413C38.7962 24.0225 38.664 24.5352 38.4088 24.9864C38.1501 25.4377 37.7441 25.9388 37.1861 26.4933C37.0249 26.658 36.6792 26.9712 36.1596 27.4456C35.6341 27.9201 35.0297 28.4583 34.3465 29.0754C33.6586 29.6856 32.9626 30.3085 32.2527 30.9407C31.5428 31.5799 30.9001 32.1448 30.3201 32.6378C29.7366 33.1319 29.2947 33.4973 28.9919 33.7259ZM43.1416 12.8876C42.2612 12.8841 41.528 13.1881 40.9469 13.7843C40.3657 14.384 40.0722 15.1264 40.0688 16.008C40.0653 16.8629 40.3564 17.5984 40.9306 18.2155C41.5083 18.8349 42.238 19.1412 43.1184 19.1447C44.022 19.1481 44.7644 18.8442 45.3444 18.2317C45.9279 17.6181 46.2156 16.8861 46.2191 16.0312C46.2225 15.1508 45.9384 14.4049 45.3607 13.8017C44.7842 13.1973 44.0452 12.8899 43.1416 12.8876ZM43.2506 20.7768C42.325 20.7733 41.6046 20.9833 41.0919 21.3962C40.5815 21.8127 40.324 22.4251 40.3205 23.236L40.2694 38.4923L45.8641 38.512L45.9256 21.3104C45.5324 21.1457 45.1032 21.0169 44.6415 20.9229C44.1775 20.8278 43.7123 20.7803 43.2506 20.7768ZM66.765 15.4396L66.7163 29.0986C66.7093 31.1831 66.3126 32.9742 65.5319 34.4648C64.7512 35.9554 63.6446 37.0945 62.2213 37.8752C60.7921 38.6593 59.1044 39.0468 57.1579 39.0398C55.1859 39.0329 53.476 38.6269 52.0214 37.8207C50.5598 37.0168 49.4369 35.9067 48.6435 34.4903C47.85 33.0774 47.4533 31.4639 47.4591 29.6566C47.4661 27.8458 47.8524 26.2462 48.6238 24.8449C49.3917 23.4448 50.4276 22.3439 51.7279 21.5377C53.0283 20.7315 54.4806 20.3313 56.0779 20.3337C57.1196 20.3406 58.0789 20.5111 58.9594 20.8499C59.8398 21.1921 60.5659 21.6595 61.1471 22.2662L61.1761 13.4734C61.5693 13.3122 62.0055 13.1857 62.4834 13.0929C62.9579 13.0059 63.4161 12.9572 63.8545 12.9607C64.7802 12.9642 65.5006 13.1765 66.0063 13.5929C66.5156 14.0128 66.7673 14.6299 66.765 15.4396ZM61.1854 29.6693C61.1923 28.3945 60.8235 27.3691 60.088 26.5907C59.3491 25.81 58.3875 25.4191 57.2066 25.4156C56.0222 25.4087 55.0606 25.7926 54.3182 26.571C53.5723 27.3424 53.1988 28.3655 53.1918 29.6392C53.1884 30.914 53.5561 31.9395 54.295 32.7213C55.0304 33.4985 55.9921 33.8894 57.1764 33.8964C58.3573 33.8999 59.319 33.5159 60.0648 32.741C60.8084 31.9673 61.1819 30.9442 61.1854 29.6693ZM21.6073 14.9814C19.2305 15.0394 16.9407 14.4072 14.9524 13.1486C14.6149 13.4085 14.2912 13.6927 13.9838 13.9977C13.6764 14.3028 13.3899 14.6253 13.1278 14.9594C14.3724 16.9546 14.9884 19.2491 14.913 21.6271C14.8573 23.3937 13.4607 24.3136 12.1104 24.309C10.7602 24.3043 9.37051 23.374 9.32759 21.6073C9.26959 19.2305 9.90179 16.9407 11.1604 14.9524C10.9005 14.6149 10.6163 14.2912 10.3113 13.9838C10.0062 13.6764 9.68371 13.3899 9.34963 13.1277C7.35443 14.3724 5.05879 14.9895 2.68195 14.913C0.914107 14.8573 -0.00577274 13.4607 2.7258e-05 12.1104C0.00466726 10.7602 0.933827 9.3705 2.70167 9.32758C5.07851 9.26842 7.36835 9.90178 9.35659 11.1604C9.69299 10.9005 10.0178 10.6163 10.3252 10.3113C10.6326 10.0062 10.9191 9.6837 11.1813 9.34962C9.93659 7.35442 9.32063 5.05878 9.39603 2.68194C9.45171 0.914097 10.8483 -0.00462251 12.1986 1.74886e-05C13.5488 0.00465749 14.9385 0.933819 14.9814 2.70166C15.0394 5.0785 14.4072 7.36834 13.1486 9.35658C13.4085 9.69298 13.6927 10.0178 13.9978 10.324C14.3028 10.6314 14.6253 10.9179 14.9594 11.1801C16.9546 9.93542 19.2502 9.3183 21.6271 9.39486C23.3949 9.45054 24.3148 10.8472 24.309 12.1974C24.3055 13.5488 23.3752 14.9373 21.6073 14.9814ZM7.83003 12.1406C6.36031 11.3564 4.72935 10.9469 3.04039 10.9411C2.94063 10.9411 2.84087 10.9411 2.74111 10.9446C1.91171 10.9655 1.61591 11.5907 1.61359 12.1197C1.61127 12.6487 1.90359 13.2762 2.73299 13.3029C4.52867 13.3574 6.26983 12.9584 7.83003 12.1406ZM12.1708 7.83002C13.0002 6.2733 13.4119 4.53678 13.3679 2.74226C13.347 1.91286 12.7217 1.61706 12.1928 1.61474C11.6638 1.61242 11.0363 1.90474 11.0096 2.73414C10.9527 4.52866 11.3518 6.26866 12.1708 7.83002ZM12.1394 16.4801C11.31 18.0369 10.8982 19.7734 10.9423 21.5691C10.9632 22.3985 11.5884 22.6943 12.1174 22.6966C12.6463 22.6989 13.2739 22.4066 13.3006 21.5772C13.3574 19.7815 12.9584 18.0415 12.1394 16.4801ZM13.6068 12.1603C13.347 11.9399 13.0953 11.7067 12.8528 11.4631C12.6104 11.2195 12.3795 10.9655 12.1603 10.7045C11.9399 10.9643 11.7067 11.2161 11.4631 11.4585C11.2184 11.7009 10.9655 11.9318 10.7045 12.151C10.9643 12.3714 11.2161 12.6046 11.4585 12.8482C11.7009 13.0929 11.9318 13.3458 12.151 13.6068C12.3714 13.347 12.6046 13.0953 12.8482 12.8528C13.0918 12.6104 13.3447 12.3795 13.6068 12.1603ZM21.5679 13.3679C22.3973 13.347 22.6931 12.7217 22.6954 12.1928C22.6977 11.6638 22.4054 11.0363 21.576 11.0096C19.7815 10.9527 18.0403 11.3518 16.479 12.1707C18.0369 13.0001 19.7745 13.4119 21.5679 13.3679Z" fill="white"/>
</svg>
